<?xml version="1.0" encoding="UTF-8" standalone="no"?>
<!-- Created with Inkscape (http://www.inkscape.org/) -->

<svg
   version="1.1"
   id="svg2"
   width="2829.3333"
   height="2829.3333"
   viewBox="0 0 2829.3333 2829.3333"
   sodipodi:docname="JEMA GER 1626-11.eps"
   xmlns:inkscape="http://www.inkscape.org/namespaces/inkscape"
   xmlns:sodipodi="http://sodipodi.sourceforge.net/DTD/sodipodi-0.dtd"
   xmlns="http://www.w3.org/2000/svg"
   xmlns:svg="http://www.w3.org/2000/svg">
  <defs
     id="defs6" />
  <sodipodi:namedview
     id="namedview4"
     pagecolor="#ffffff"
     bordercolor="#000000"
     borderopacity="0.25"
     inkscape:showpageshadow="2"
     inkscape:pageopacity="0.0"
     inkscape:pagecheckerboard="0"
     inkscape:deskcolor="#d1d1d1" />
  <g
     id="g8"
     inkscape:groupmode="layer"
     inkscape:label="ink_ext_XXXXXX"
     transform="matrix(1.3333333,0,0,-1.3333333,0,2829.3333)">
    <g
       id="g10"
       transform="scale(0.1)">
      <path
         d="m 10606.6,19223.9 c -4755.44,0 -8610.5,-3855 -8610.5,-8610.5 0,-4755.4 3855.06,-8610.5 8610.5,-8610.5 4755.4,0 8610.5,3855.1 8610.5,8610.5 0,4755.5 -3855.1,8610.5 -8610.5,8610.5"
         style="fill:#bac3cb;fill-opacity:1;fill-rule:nonzero;stroke:none"
         id="path12" />
      <path
         d="m 18581.8,9944.7 c -34.4,28.7 -96.2,33.5 -117.3,73.7 -25,47.5 2.9,117.7 21.7,163.5 33,80.6 83.1,119.2 147.1,171.2 106.4,86.4 56.3,182.8 49,304.5 -5.8,98.3 -28.1,200.9 -131.4,231.9 -81.4,24.4 -138.1,25.5 -217.4,-3.4 -51,-18.6 -129.9,-44.9 -175,5.7 -24.1,26.9 -17.3,85.8 -40.8,120.5 -37.8,55.8 -122.6,90.7 -187.6,103.4 -54.5,10.6 -129.6,13.1 -162.4,-38.5 -16.6,-26.1 -11.5,-54.3 -28.6,-81.1 -34.5,-54.2 -122.8,-140 -186.1,-147.1 -48.9,-5.4 -74.9,26.9 -114,50.7 -26,15.9 -85.4,52.6 -112.2,51.6 -38.4,-1.4 -113.4,-80.8 -147.1,-101.8 -24.6,-15.3 -94.9,-46.5 -112.8,-73.1 -37.8,-56.4 15.2,-145.8 -21.2,-204.9 -42.5,-68.7 -92.1,-58.3 -153.1,-85.9 -63,-28.4 -117.7,-103.8 -188.6,-110.8 -59.9,-5.9 -154.1,59.5 -199.6,-17.1 -33.7,-56.7 27.2,-114.2 -42.4,-161.5 -45,-30.5 -180.7,-97.3 -229.2,-55.2 -20,17.4 -19.9,51.6 -42.2,71.1 -33.8,29.5 -101.9,31.2 -130.1,61.8 -12.4,13.5 -29.2,121.9 -9.2,140.9 12.2,11.7 65.5,6.4 79.7,4.6 44.6,-5.5 55.3,-30.3 92.6,-41.6 76.2,-23 63.9,15.9 64.7,62.7 0.9,51.9 91.3,149.1 56.6,200.6 79,33.1 189.7,-49.5 222.2,-118.2 46.6,-3.2 101.4,36.4 125,74.5 3.9,6.4 14.6,38.4 18.4,42.3 14.6,15.1 38.1,15.3 53.7,29.2 16.8,14.8 38.2,41 54,57.7 11.4,12.1 24.1,24.3 33.1,39.6 28.5,47.6 24.1,60.6 -0.3,104.9 -10.9,19.9 -19.6,18.4 -23.1,39.6 -10.2,61.7 54.1,116.7 95.9,143.3 23.9,15.3 35.5,6.1 46.6,42.5 6.3,20.9 3.3,40 8.6,61.1 13.4,54 30.1,90.8 -9.7,140.9 -19.7,24.9 -46.7,52.7 -71.7,71.5 -42.1,31.8 -118.7,54.8 -171.5,31.9 -48.3,-21 -83,-72.5 -126.6,-100.3 -31.9,-20.4 -80,-23.2 -104.3,-55.2 -26.3,-34.7 -5.1,-73.2 -17.7,-114 -23.4,-75.8 -105.5,-113.7 -178.3,-92.5 -39.5,11.5 -30.3,29.6 -43.7,57.1 -18.5,38 -35,56 -80.8,62.6 -39.5,5.7 -139.8,14.4 -178.4,-2 -92.2,-39.1 -24.4,-160.6 -68.7,-229.9 -92.1,-144.1 -259.8,-136.7 -388.8,-57.6 -49,30.1 -122,60 -93.7,123.5 28.1,63.2 109.1,94.2 128.7,162.1 17,58.7 9,127.6 -41.7,162.4 -62.1,42.8 -156.6,76.9 -165.8,165.1 -8.4,80 85,131 152.9,145.5 76,16.1 84,-9.6 143.5,-34 40.8,-16.8 77.8,-16.7 113.9,-49.3 34.4,-30.9 37.7,-66.6 89.9,-79.6 65.3,-16.3 136.9,-5.7 182.4,41.7 65.5,68.1 34.1,87.2 -1.3,156.3 -14,27.3 -35.8,59.1 5.2,88.4 16.3,11.7 80.4,6.1 102.2,4.6 73.3,-5.3 128.7,-60.5 172.3,-116.4 17.6,-22.6 27.2,-42.9 31.4,-71.3 2.5,-17.1 -9.8,-46.6 -2.9,-62.2 23.1,-53 216.6,9.9 226.1,63.3 5.6,31.3 -27.1,59.2 -39.5,84.7 -17.3,35.8 -33.4,88.6 -37.5,128.1 -5.6,54.3 0.6,81.7 55.1,102.3 73,27.5 358,7.4 356.3,-106.4 37.9,-11.9 65.2,-5.1 103.9,-23.2 40.2,-18.8 64.3,-36.2 98.2,-62.7 32.9,-25.7 63.9,-38.4 91.1,-72 14.8,-18.2 23.4,-43.8 47.4,-47.7 37.2,39 87.9,82.3 145.1,65.7 39.6,-11.6 101.9,-54.1 124.5,-89.4 14.3,-22.4 -4.1,-32 22,-43.2 19.5,-8.2 60.9,8.3 79.8,16.5 28.6,12.2 49.2,32.6 76.3,45.5 21.4,10.1 48,12 70.5,22.3 36,16.3 87.4,11.5 110.7,39.7 27,32.7 12.8,85.4 14,123.8 1.8,52.5 19.3,135.2 54.2,175.2 21.4,24.5 57.9,48.7 83.7,68.7 -61.5,27.1 -134.5,-50.9 -194.5,-13.4 -15.9,10 -27.9,46.9 -44.2,59.7 -20.7,16.2 -37.3,15.2 -59.2,25.1 -26.5,11.9 -61.6,22.2 -62.6,55.2 -0.9,30 53.8,90.1 79.2,100.7 31.4,13.1 69.5,-1 102.8,7.7 35,9.2 54.5,16.3 92.6,16 31.7,-0.4 70.4,-5.2 101,1.8 76.7,17.3 36.8,77 62.8,132.7 26.4,56.5 66.2,49.3 31.6,112.4 -37.8,68.9 -10.8,77.6 41.2,122.4 35.5,30.7 84.2,101 78.2,144.6 -8.2,58.3 -40,137.1 -88.6,173.5 -42,31.7 -101.9,71.9 -94,135.6 7.6,62.3 61.8,118.7 43.6,186.2 -9,33.6 -57.5,76.7 -86.3,96.2 -75.5,51 -133.4,62.8 -176.9,149.6 -31.6,63.2 -34.1,110.8 -5.3,174.9 40.1,88.9 -19.5,92.9 -93.5,134.3 -53.7,30 -110.2,56 -112.6,122.9 -1.2,33.9 4.7,69.6 0.8,103.3 -5.6,49.1 -3.5,26.1 -41.6,40.7 -31,11.8 -109.5,17.6 -102,69.7 2.8,19.6 35.6,32.2 45.8,48.1 21.4,33.2 13.2,27.9 -2.8,59.6 -18.4,36.7 -78.2,70.4 -123.5,74.1 3.9,41.1 72.4,47 78.1,73.1 -40.2,13.4 -101.9,-12.4 -138.3,8.8 -39,22.8 -34.4,69.1 -86.5,79.6 -90,18.1 -161.9,-69.3 -246.7,-84.7 -112.3,-20.4 -102.9,114 -103,186.1 0,30.2 11.9,92.7 -4.2,119.3 -22.9,37.8 -76,19.2 -95.5,65.5 -10.2,24 -10.9,100.1 -4.1,124.9 4.1,15.5 21.1,38.3 31.6,50.6 15.2,17.6 22.8,19.6 38.8,32.6 11.5,9.3 89,70.4 93,85 8.9,31.9 -59.9,78 -85.2,93.5 -57.8,35.7 -130.3,73.1 -139.5,148.2 -11,90.2 54.1,149.1 -25.2,223.7 -44.3,-19.5 -85.8,-17.1 -138.9,-17.4 -67.4,-0.5 -89.5,10.7 -144,51.4 -97.2,72.7 -131.5,153.7 -66.9,257.8 22.8,36.7 45.7,73.9 6.7,102.7 -36.6,27.2 -70.7,21.8 -94.6,70.8 -32.4,66.2 -34.7,184.1 -122.7,197.2 -82.3,12.2 -179.8,-59.8 -257.9,-83.8 -29.6,-9.1 -78,-10.3 -103.4,-29.4 -31.2,-23.4 -13.4,-61.4 -44.3,-88.4 -59.8,-52.3 -171.3,-118.9 -253,-108.7 -115.2,14.3 -152,85.2 -185.4,185.8 -34,102.8 86.3,108.9 154.4,138.5 45.2,19.7 65.2,39.7 92.6,77.6 34.3,47.5 31.9,115.6 30.9,174.9 -2.3,140.4 51,268.2 -40,389.1 -27.1,36 -61.2,62.3 -82.8,102.6 -39.9,75 -71.7,137 -149.1,186 -71.4,45.3 -171.7,95.6 -256.4,71.9 -46.2,-13 -63.1,-24.6 -112.7,-13.5 -86.7,19.6 -172.7,49.7 -253.5,86 -53.4,23.9 -103.1,38.8 -86.4,103.4 28.6,37.6 37.8,78.6 27.4,122.8 4.5,59.6 -18.3,110.3 -68.1,152.1 -62.7,78.5 -132.7,160.7 -226.5,198.9 -106.3,43.3 -222.4,14.9 -322.5,-38.5 -36.8,-19.6 -129.6,-103.8 -167,-104.3 -34.4,-0.5 -93.1,30 -130.1,38.9 -92.8,22.3 -178.3,51.3 -269.7,76.1 -102,27.8 -200,-17.1 -208.2,-133.5 -111.8,-24 -343.3,132 -404.4,-29.9 -25,-66.3 -3.5,-140.7 -53,-199.2 -41.7,-49.3 -116.7,-62.7 -176.8,-63.5 -16.6,30.6 -4,109.9 -7.4,138.9 -4.9,42.8 -16.9,84.4 -23.6,126.9 -11.2,72 -13.7,148.5 20.3,213.7 27.7,52.9 73.3,70.5 124.2,96.7 -19.9,52.4 -58.6,90.4 -77.7,144.7 -9,25.7 -17,52.4 -22.6,79.1 -11.8,2.3 -23.7,3.6 -35.8,3.9 -10,67.4 82.9,123.1 64.2,188.3 -21.8,76.3 -187,57 -245.2,93.6 -20.5,17 -42,32.7 -64.3,47.2 -13.3,12.6 -22.9,27.5 -29,44.8 -38.7,11.5 -76,5.8 -112.1,-17 -66.9,-22.5 -135.3,-39.7 -204.9,-51.6 -48.5,-17.3 -97.7,-21.7 -147.7,-13.4 -20.6,23.2 -31.1,50.6 -31.5,82.1 -59,188.6 -179.2,43.7 -276.2,-23.9 -51.2,-62.8 -109.6,-77 -175.2,-42.8 -38.8,34.4 -64.4,76.7 -76.5,127 -1.9,41.9 -22.4,68.7 -61.5,80.4 -73.3,0.4 -146.2,-4.4 -218.8,-14.4 -81.1,-7.6 -161.2,-21 -240.3,-40.1 -45.8,-18.1 -91.2,-19.4 -136.2,-4.1 -16,38 -37.6,72.5 -64.9,103.6 -64.4,23.5 -130.5,28 -198.2,13.5 -71.4,-3.3 -135.3,16.6 -191.7,59.9 -53.5,38.5 -112.8,54.1 -178.1,46.9 -81.94,-13.7 -107.52,-73 -168.32,-116.6 -115.81,-83 -259.04,12.1 -379.88,-49.3 -59.07,-30 -116.64,-101.4 -89.91,-166.8 30.1,-36.7 55.14,-76.6 75.13,-119.8 20.44,-55.3 50.79,-104.6 91.05,-147.6 81.05,-66.9 158.81,-27 248.09,-15.3 11.21,-38.4 3.27,-75.2 -23.84,-110.4 -29.18,-73.7 -63.89,-144.6 -104.14,-212.8 -42.86,-96.1 18.39,-137.1 91.78,-196.8 93.86,-76.4 246.54,-165.8 371.54,-173 34.5,-1.9 69.6,12.1 101.6,17.8 31,-7.4 62.3,-7.2 94.1,0.3 41.9,17.7 83.7,35.4 125.6,53.1 58.4,10.4 107.2,-33.6 159.1,-7.1 17.3,12.4 32,27.6 44.1,45.6 23.4,18.2 49.8,28.8 79.4,31.6 74.4,17.6 67.3,-4 104.5,-70.5 41.7,-74.4 77.3,-94.7 156.7,-107.4 26.2,-11.7 53.6,-15.3 82.2,-11 28.3,8.5 57,14.9 86.1,19.4 77.7,-15.1 74,-80.7 103.6,-142.4 18.8,-39 48.3,-51 41.3,-100.3 -6,-43.2 -56.6,-108 -103.2,-112.6 -2.8,-0.3 -114.6,58 -88.3,47.5 -105.3,42 -214.2,71.8 -322.5,104.1 -10.3,61.2 -28.1,60.1 -81.2,39.2 -80.1,-31.5 -166.4,-44.3 -249.7,-64.1 -43,-10.2 -169.4,-19.9 -190.1,-59.7 -16.2,-31 4.4,-83.3 6.8,-115.1 4.6,-61 12.3,-97 42.9,-152.2 33.2,-51 67.6,-101.2 103.1,-150.6 17.7,-23.8 38,-45 60.8,-63.5 45.7,-80.9 -11.8,-150.4 -72.7,-214.8 -29.1,-39.8 -67.1,-68 -114.1,-84.8 -20.3,1.3 -40,-1.1 -59.2,-7.1 -5.8,-96.7 -50.4,-206.7 19.6,-282 47.2,-50.9 100.6,-83.5 137.1,-144.9 30.8,-52 21.8,-110 49.7,-158.8 45.6,108.7 140,70.4 211,14.4 78.3,-61.8 104.3,-188.5 201.6,-233.1 50.3,-23 121.7,-22.7 171.9,-2.9 66.8,26.2 84.5,76.5 99.5,141.3 28.5,123.7 49.4,236.6 125.3,340.8 -8.3,-29.4 -11.9,-58.8 -15.3,-89.5 73.5,135.6 311.8,15.6 395.9,-18.4 112.6,-53.1 225.7,-104.9 339.4,-155.4 41.4,-8.8 80.4,-23.4 117,-43.8 1.5,-46.3 -12,-97.2 -3.9,-142.8 7.4,-42.1 14.9,-53.9 44.6,-91.1 27.8,-40.2 59.4,-77.2 94.8,-111.1 35.6,-33.7 76.9,-55.4 124.1,-65.1 19.8,-11.4 35.6,-38.6 59.5,-30.4 48.2,107.2 73.6,221.5 129.7,325.5 18.8,34.9 35,78.2 72.5,92.6 62.4,24.1 162.2,17.8 225.8,21.1 78.8,4.1 156.7,16.3 235.4,18.9 11.2,-21.7 1.1,-60.7 5.3,-84.2 5.3,-30 17.2,-73.1 36.9,-97.4 18.8,-23.3 55,-24.9 60.4,-54.2 6.5,-34.7 -58.9,-90.5 -79.6,-112.3 -31.6,-35.8 -66.4,-68.2 -104.4,-97.4 -13,-9.3 -26,-18.6 -39,-27.9 -14.3,-35.5 47.6,-63 69.4,-79.9 51.2,-39.8 143.9,-84.5 112.7,-165.2 -35.3,0.2 -40.8,25.8 -78.9,10.1 -63.9,-26.2 -67.6,-115 -84.1,-169.9 -15.8,-52.9 -31.5,-78.3 -80.5,-110.2 -75.6,-49.3 -223.6,-86.6 -239.4,-191.9 -11.4,-76.1 50.5,-115.4 102.1,-164.7 40.4,-42.7 85.1,-80.3 134.2,-112.6 28.6,-11.7 55.2,-26.9 79.8,-45.5 49.1,-47 77.2,-102.6 135.1,-145 96.7,-70.9 152.9,-60.7 251.9,-12.1 -78.3,-34 -35.1,-256.5 -20,-322.1 14.7,-64 45.6,-87.7 109.7,-106.2 87.1,-25.2 184.3,-27.4 272.9,-50 44.6,-11.4 110.8,-9.1 143.2,-44.1 18,-19.4 17.8,-48.4 39.2,-68.3 56.7,-52.8 161.3,-64.7 180.8,-156 12,-56.1 -22.5,-117.1 -15.9,-174.9 7.6,-66.4 34.8,-83.3 61.7,-134.1 45.5,-86 -33.8,-82.3 -104.9,-71.5 -54.5,8.3 -111.2,12.7 -163.1,33 -50.1,19.6 -63.7,29.4 -107.3,-5.6 -54.4,-43.7 -112.1,-114.6 -159.2,-166.3 -14.1,-15.5 -82.5,-82.2 -59.3,-115.3 71.2,-3 143.7,-19.2 155.2,-98.6 10.1,-68.8 -58.4,-97.6 -73.2,-152.6 -15.1,-56.1 13.7,-63.4 49.3,-98 50.7,-49.2 75.9,-74.3 54.7,-148 -26.2,-91.4 -110,-171.8 -191.5,-213.1 -93.6,-47.4 -192.7,-44.9 -289.2,-5.9 -23.6,9.5 -117.2,69.1 -132.9,107.2 -11,26.8 9.5,32.1 6.6,56 -6.1,50.1 -132.1,84.4 -159.5,97.7 -80.7,39.2 -220.9,94.1 -183.3,207.8 8.6,25.9 29.3,41.3 40.3,64.3 24.6,50.9 23.3,93 0.9,147.8 -24.5,60.1 -83.4,87.9 -113.6,141.8 -23.1,-76 -159.1,-63.9 -208.8,-35.6 -62,35.4 -123.9,101.6 -153.2,164.2 -37.1,79.2 0.6,116 35,189.5 -94.3,70.2 -125.9,205.4 -76,312 24.7,52.8 43.9,135.2 -4.7,185.1 -10.6,1.4 -21.1,3.4 -31.4,5.8 -6.8,8.4 -12.8,17.3 -17.9,26.8 -35.5,47 -22.6,108.1 -43,159.4 -18.2,45.8 -16.6,32.2 -72.2,40.5 -57.7,8.6 -74.4,23.8 -80.1,76.4 -15.2,137.7 46.6,238.3 -109,313.8 -85.8,41.7 -206,63.3 -294.5,18.9 -45.1,-22.6 -51.5,-46.4 -107.6,-39.1 -43.6,5.7 -98.8,8.5 -141.8,18.6 -78.2,18.3 -79.6,106 -85,172.1 -1.6,18.8 -10.5,82.6 -1.4,115.3 -13.5,-11.5 -31.5,-15.6 -47.8,-10.9 -39.5,11.4 -55.7,110.7 -65.1,146.8 -22.5,86.8 -23.8,91.3 -111.2,90.5 -81.7,-0.7 -147.7,-29.6 -226.3,-39.7 -88.9,-11.4 -108.6,-34.1 -164.4,-109.1 -37.9,-50.9 -111.3,-160.7 -189.6,-140.7 -65.3,16.6 -49.5,69.7 -60.6,114.6 -12.5,50.8 -30.7,33.7 -74,43.5 -54.3,12.2 -91.2,69 -151,57.6 -60.4,-11.5 -109.7,-52.4 -121.6,-109.8 -11,-53 -29.6,-82.7 -57.5,-130.3 -24.1,-41.2 -53.05,-78.9 -67.33,-122.3 -17.79,-54 -26.44,-107.9 -72.1,-150.1 -51.75,-47.9 -146.42,-51 -192.73,6.6 -34.62,43.1 -40.3,128.1 -96.08,147.1 -43.56,14.8 -117.2,-0.1 -163.17,-0.1 -55.51,0 -118.04,10.1 -172.23,-0.2 -45.34,-113.6 3.29,-306.7 -169.36,-310.4 -15.73,-0.3 -60.83,12.5 -76.66,0.2 -7.8,-18.7 -15.21,-37.5 -22.22,-56.6 -18.27,-36.7 -38.67,-72.3 -61.18,-106.6 -23.24,-33.5 -134.31,-165.4 -192.57,-121.8 -22.29,16.7 -18.5,36.9 -12.99,59.4 6.49,26.7 61.93,74.5 51.73,105.4 -11.89,36 -67.5,19.7 -91.17,45.9 25.17,129.4 148.16,204.6 261.88,248.2 36.69,14.1 64.21,40.8 28.96,78.8 27.78,40.4 61,95.4 94.54,130.7 7.71,8.1 52.24,28.3 55.27,34.5 10.88,22.1 -10.03,27.2 -12.05,49.1 -10.05,108.4 121.33,35.7 143.7,121.2 26.98,103.2 -69.74,259.3 -185.22,233.4 -36.59,-8.2 -110.64,-70 -146.48,-61 -34.08,8.5 -14.65,55.6 -21.81,83.1 -42.74,6.9 -123.93,-78.7 -169.07,-94 -24.6,26.2 -0.58,50.3 -11.86,76.6 -11.01,25.7 -29.76,14.4 -48.94,33.4 -17.57,17.4 -17.26,32.9 -34.49,47.8 -12.37,10.7 -45.17,27.8 -63.26,22.1 -23.35,-7.5 -45.01,-75.4 -64.7,-102.7 -46.64,-64.7 -82.02,-154.5 -183.15,-148.2 -47.7,3 -60.66,45.9 -100.35,64.3 -38.1,17.6 -71.91,20.1 -108.43,4.5 -23.07,-9.8 -34.32,-11.7 -52.1,-30.3 -2.42,-10.6 -5.31,-21.1 -8.64,-31.4 -12.32,-6 -23.02,-14.2 -32.1,-24.5 -34.79,-48 -62.88,-84 -113.58,-25.3 -21.75,-10.1 -48.48,-24.8 -70.94,-34.5 -73.6,96 -168.27,9.2 -189.79,-75.3 -13.15,-51.7 8.04,-100.4 -26.24,-150.5 -20.61,-30.1 -56.04,-60.2 -94.79,-41.6 -0.68,41.9 -22.02,66.3 -65.24,60 -9.44,-1.3 -88.05,-19.7 -91.89,-23.2 -32.04,-29.1 9.46,-29.6 11.72,-59.5 2.26,-29.7 -29.76,-68.2 -51,-84.3 -48.86,-36.9 -108.84,-11.2 -167.12,-18.7 -33.48,-4.2 -84.65,-35.2 -109.94,-58 -35.87,-32.4 -18.41,-19.6 -4.7,-58.8 26.12,-74.9 -24.59,-169.2 -101.43,-172.5 -66.31,-2.9 -152.43,-13 -214.33,9.7 -135.73,49.7 -75.81,235.9 -0.21,311.5 97.09,97.1 249.99,112.4 314.7,250.6 33.12,70.7 21.47,132.7 -6.77,200.3 -22.64,54.1 -36.46,28.8 -74.28,54.3 -32.07,21.6 -21.41,73.4 -14.72,105.1 14.3,67.8 77.17,180.6 149.92,199.6 44.28,11.7 46.66,-9.9 76.73,24.6 32.52,37.4 44.91,82.6 92.18,111.5 41.36,25.2 99.14,36.4 147.5,30.3 19.84,-2.5 49.36,-24.7 64.22,-24 58.23,2.9 69.29,195 81.82,233.4 16.81,51.5 21.72,113.2 46.86,161.8 17.56,33.9 28.3,24.5 51.99,43.9 51.37,42.1 62.25,117.1 107.52,167 40.5,44.6 41.65,33.8 82.15,-6.7 25.2,-25.2 43.3,-61 66.45,-84 44.78,-44.5 192.21,-24.6 243.79,-0.5 80.88,37.9 114.97,123.5 124.94,204 72.56,10.2 147.6,85.9 224.35,66.4 27.4,-6.9 37.49,-28 71.52,-22.5 29.41,4.8 46.85,24.4 71.44,42.1 17.36,12.5 60.46,59.4 83.29,49.9 32.93,-13.6 16.27,-75.7 21.34,-101.3 15.18,-76.7 51.27,-81.8 118.65,-95.7 8.95,-33.7 -16.14,-88.1 22.15,-101.7 24.56,-8.8 41.7,12.5 62.13,17.9 28.94,7.7 56.66,-2.4 84.42,3.4 21.97,4.7 38.35,18.9 60.66,22.8 16.22,2.9 36.59,-6.5 52.17,-2.2 46.77,12.7 43.09,62.2 65.64,104.5 23.86,44.8 40.39,74.7 87.46,82.1 40.21,6.4 66.44,-14.7 103.28,-21.8 61.32,-11.8 174.65,53.9 226.39,82.8 59.34,33 119.77,96.7 139.92,165 8.96,30.4 6.49,68.4 -0.47,98.3 -1.27,5.5 -14.84,14.7 -17.06,24.1 -4.66,19.7 8.5,44.8 2.6,63.9 -10.8,34.8 -48.05,34.6 -43.57,81.8 3.4,35.7 21.33,46.6 17.36,81.2 -3.25,28.3 -27.46,63.5 -32.48,87.4 -7.12,33.9 -12.26,64.5 -20.64,98.2 -8.34,33.6 0.46,63.6 -36.96,80.8 -23.45,10.8 -62.46,1.9 -86.42,-3 -20.36,-4.2 -51.59,-19.8 -71.94,-30.9 -36.29,-19.8 -18.69,-34.9 -61.14,-11.6 -63.1,34.6 -29.1,133.3 -46.21,191.1 -23.33,78.7 -66.62,67.1 -128.78,36 -60.95,-30.4 -88.15,-83 -128.57,-138.9 -34.86,-48.1 -49.58,-121.7 -102.33,-150 -67.94,-36.4 -110.6,41 -138.86,93 -38.65,71 -13.8,135.6 -98.3,181.5 -60.08,32.5 -121.32,34 -47.33,96.2 43.24,36.4 138.35,83 86.89,148.1 -4.8,6.1 -34.99,19 -44.68,27.3 -7.27,6.2 -13.16,14.2 -20.17,20.6 -25.6,23.5 -57.4,39.7 -83.77,62.2 -36.84,31.5 -67.04,70.7 -104,102.4 36.38,52.7 -37.93,69.7 -55.94,118.3 89.33,73.5 -6.09,189.6 -49.94,255.2 -21.69,32.4 -62.78,79.6 -102.36,90.9 -35.83,10.3 -49.03,-12.5 -82.78,-18.1 -24.45,-4 -47.61,-3.9 -71.97,-9.1 -68.78,-14.6 -69.69,-7.6 -97.27,51.4 -20.65,44.2 -65.5,77 -97.42,115.1 -19.23,23 -34.34,36.8 -57.95,55.1 -17.03,13.3 -34.61,43 -50.38,52.5 -33.59,20.4 -110.62,1.4 -149.86,3.4 -24.59,1.3 -38.24,12.6 -55.81,16.2 -21.3,4.4 -54.93,-3.1 -73.55,8.8 -45.36,29 -18,81.5 -85.92,73.9 -16.44,-1.8 -41.28,-15.9 -57.7,-21.4 -17.23,-5.8 -42.92,-11.8 -61.72,-19.5 -23.17,-9.4 -26.38,-20 -50.38,-22.2 -21,-1.9 -53.98,5.8 -77.65,5.6 -20.47,-0.2 -41.35,1.6 -61.72,0.5 -30.29,-1.6 -54.13,-22.4 -82.23,-23.1 -75.25,-2 -41.38,82.8 -107.59,49.2 -87.96,-44.6 -128.84,-132.4 -201.11,-191.2 -1.14,-5.7 -22.86,29.7 -24.01,24 -46.51,-9 -111.02,-20.7 -146.22,-59.2 -28.22,-30.8 -30.72,-77.4 -57.58,-110.5 -43.46,-53.5 -127.13,-40.3 -166.99,-90.2 -39.46,-49.3 22.76,-138.7 -7.24,-204.7 -41.45,-91.2 -89.22,-3.4 -157.02,-25 -44.61,-14.3 -69.36,-66.1 -78.06,-109.1 -15.13,-74.9 25.92,-91.8 56.27,-150.7 12.83,-38.8 25.66,-77.6 38.48,-116.4 4.63,-35.3 9.26,-70.5 13.89,-105.8 12.97,-17.4 17.47,-27.3 39.5,-10.8 34.22,-63.9 -53.41,-101.9 -98.45,-121.6 -49.81,-3.9 -78.31,-30.8 -85.5,-80.9 3.53,-25.3 7.06,-50.5 10.59,-75.7 48.62,-78.2 165.88,-39.2 183.83,-154.8 16.45,-105.9 -115.23,-158.1 -190.15,-182.4 25.77,56.1 32.05,86.9 -5.36,140.1 -33.74,33.1 -68.88,64.5 -105.4,94.4 l -12.48,36.4 c -39.54,66.4 -102.54,189.3 -51.44,263.9 40.2,58.7 87.97,54.9 49.54,128.4 -19.96,3.4 -39,1.1 -57.12,-7.1 -11.58,58.4 -13.27,115.2 -31.8,172.1 -89.89,-33.8 -111.31,-153 -219.44,-160.2 -48.16,-3.2 -148.47,12.7 -186.1,-31.9 -18.35,-22.1 -20.31,-47.4 -5.88,-76 10.16,-65 -3.51,-124.1 -41,-177 -44.63,-6.4 -85.53,2.1 -122.7,25.3 -21.26,13 -44,21.7 -68.23,26.2 -28.63,0.7 -23.22,-6.7 -44.68,-7.9 -48.38,-2.8 -135.26,10.8 -171.65,-36.4 -31.11,-40.3 12.94,-98.3 -27.72,-145.6 -57.59,-66.8 -150.2,-25.9 -212.73,-74.6 -52.55,-40.9 -31.2,-141.3 -55.68,-203.8 -14.84,-37.8 -43.22,-126.3 -80.73,-149 -23.05,-13.9 -61.87,3.1 -80.32,-7.7 -28.84,-17 -40.31,-80.7 -34.6,-109.4 8.64,-43.4 39.95,-63.8 77.07,-80.1 47.55,-20.8 78.61,-33.8 103.91,-85.1 23.87,-48.4 33.63,-104.2 39.1,-157.3 -58.22,40.7 -91.51,21.1 -131.56,-28.7 -18.2,-22.6 -109.07,-156.7 -92.88,-202.7 62.42,-13.2 142.43,-15.4 200.74,-40.2 34.01,-14.4 62.87,-52.6 91.78,-75.7 63.8,-51.1 107.68,-86.8 189.38,-74.2 36.83,23.7 64.16,18.2 82.01,-16.4 18.63,-16.7 33.73,-36.1 45.29,-58.3 31.54,-36 67.3,-57 102.24,-89.8 44.87,-42.1 46.02,-87.2 112.37,-74.6 62,11.7 91.79,9.1 140.54,-35.7 -19.37,-96.5 -65.53,-99.3 -150.58,-92.1 -31.8,2.7 -138.89,37.8 -154.46,19.3 5.5,-16.7 15.74,-29.2 30.72,-37.3 -31.9,-80.2 -61.38,-161.3 -91.08,-242.3 -40.73,-16.9 -70.12,0 -88.16,50.6 -32.37,13 -65.59,17 -99.65,11.9 -31.73,77.4 -39.06,202.1 -143.23,203.5 -46.92,-32.4 -97.53,-46.7 -151.83,-42.7 -32.85,-10.7 -59.31,-2.4 -79.39,25 -27.42,-11.6 -52.92,-30.9 -79.92,-44.2 -1.3,-82 115.49,-157.8 153.16,-229.7 -43.21,-69.6 -153.86,-73.1 -217.85,-118.2 -88.71,-62.6 -154.62,-191.2 -166.47,-296.7 28.56,-29.9 88.43,-14.8 124.23,-13.2 32.38,-50 45.82,-105.7 40.34,-167 -3.74,-31.7 -5.44,-63.5 -5.11,-95.4 30.63,-61.5 137.45,-90.8 205,-104.1 27.19,43.4 39.55,90.9 37.05,142.6 18.16,29.5 39.18,34.4 63.04,14.8 49.73,-3.3 56.44,-30.9 102.22,1.6 39.34,28 117.45,88.1 154.42,20.4 28.93,-53 -30.42,-172.4 -82.96,-198.9 -79.46,-40 -122.74,4.8 -190.38,-84.4 -55.66,-73.4 -26.15,-93.4 23.54,-145 46.79,-48.6 68.39,-121.1 8.06,-174.6 -49.5,-43.9 -168.6,-45.3 -192.58,-104.6 29.99,-45.1 62.56,-67.1 64.61,-122.5 3.6,-97.3 -106.89,-123.6 -121.87,-206.1 88.97,-58.7 179.48,-114.8 269.1,-172.3 60.61,-39 93.43,-74.1 77.1,-147.7 -15.76,-71 -31.64,-101.7 21.66,-172.5 48.59,-64.6 106.01,-112.2 183.87,-69.1 47.22,26.1 70.23,75.9 82.46,123.9 15.99,62.8 29.91,97.7 69.31,152.6 36.09,56.3 80.64,103.8 133.65,142.6 17.2,26.6 40.3,37 69.29,31.2 19.2,25.7 36.89,52.4 53.08,80.1 18.97,48.1 55.82,76.2 110.56,84.1 49.85,-30 83.26,-71.9 100.24,-125.5 12.91,-39.1 34.15,-73 63.7,-101.7 32.05,11 64.55,12.5 97.5,4.5 45.45,-104 4.55,-103.2 -60.9,-169.9 -55.61,-52.8 -61.09,-110.8 -16.44,-173.7 71.99,-57.3 151.83,-69.9 239.51,-37.6 98.29,30.1 169.04,155.1 267.55,157.1 128.23,2.6 165.16,-145.3 215.92,-233.3 133.53,17.3 410.59,-14.2 474.4,-150.2 29.61,-39.1 27.56,-80.6 -6.15,-124.2 -20.15,-46.2 -53.82,-71.4 -101.02,-75.5 -49.81,10.4 -52.1,94.1 -116.97,84.8 -48.76,-99.5 80.27,-222.8 8.54,-327.4 -29.13,-42.5 -65.34,-20.3 -104.8,-31.6 -25.23,-7.2 -18.16,-7.5 -36.04,-19.1 -74.29,-47.9 -171.68,-48 -161.16,-158.2 5.13,-53.6 60.52,-103.1 53.86,-158.2 -7.18,-59.4 -83.07,-105 -132.68,-119.3 -9.86,32.9 14.24,94.9 16.49,132.1 3.33,55 13.74,100.7 24.67,154.1 19.23,94.1 -33.24,113.8 -98.67,164.7 -71.1,55.3 -65.81,79.5 -48.69,157.9 14.31,65.5 35.35,150.6 -60.41,151.9 -30.6,-1 -58.03,-9.9 -82.3,-26.7 -16.23,-8.1 -31.06,-18.3 -44.48,-30.6 -36.18,-2.7 -54,40 -78.64,61.7 -33.82,29.7 -79.5,54.3 -125.54,41.2 -13.41,-54.8 20.43,-104.9 21.1,-158.6 1.12,-90.3 -63.07,-155.3 -122.02,-214.3 -45.94,7.2 -43.46,76.2 -86.81,98.8 -33.42,17.4 -96.91,14.5 -130.77,-3.6 -49.55,-26.4 -60.56,-103.4 -83.36,-151.1 -16.21,-66.7 -53.33,-108.7 -111.37,-126.1 -9.37,-8.5 -18.24,-13.6 -26.74,-16 15.44,-34 23.79,-79.9 13.9,-95.7 -28.44,-45.4 -78.31,-19.2 -120.7,-46.2 -126.87,-81 138.56,-313.5 126.43,-417.2 9.58,-28.7 1.63,-51.7 -23.85,-68.8 -17.3,-4.2 -26.78,-15.4 -28.45,-33.9 -15.2,-37.1 4.61,-83.7 -6.67,-122.3 -21.24,-72.7 -106.59,-161.1 -179.27,-88.8 -12.06,-58.8 -32.09,-150.1 -81.13,-193.4 -59.37,-52.4 -116.26,11 -168.04,36.5 -44,21.6 -72.94,30 -120.56,32.3 -48.36,-4.9 -89.62,8.5 -123.78,40.1 -44.3,16.7 -64.12,50.5 -59.46,101.5 35.1,46.7 82.42,63.7 141.94,51.1 54.26,-3.1 108.55,-5.2 162.89,-6.1 62.39,4.4 151.75,26.9 208.86,51.6 83.98,36.2 87.53,70.9 29.25,125.1 -45.96,42.8 -120.88,85.8 -113.39,163.4 10.33,107 109.59,97 84.24,230.6 -36.07,71.8 -76.34,141.2 -120.8,208.1 -10.51,53.2 -6.15,104.5 13.06,154.1 18.89,49.4 23.69,100.5 14.43,153.5 -33.3,42.4 -76.79,60.3 -130.48,53.7 -68.99,12.7 -61.97,30 -86.91,90.7 -27.86,67.8 -75.18,110.7 -150.55,93.6 -130.62,-29.4 14.88,-130.4 13.52,-212.5 -1.31,-79.3 -54.88,-215.6 -158.37,-136.3 -50.13,38.3 -48.75,114 -88.98,160.9 -27.51,13.7 -44.86,34.9 -52.05,63.4 17.29,28.6 37.95,54.7 61.99,78.1 28.41,55.1 -1.34,72.4 -38.99,123.2 -26.06,35.2 -70.82,81 -86.92,124 -22.11,58.9 35.22,91.3 46.21,150.6 -39.43,33 -81.92,42.5 -98.71,97.6 -19.25,63.3 25.72,110 8.9,166.8 -130.65,46 -11.43,99.5 -27.16,186.3 -6.32,34.9 -41.7,59.7 -41.7,96.7 -0.01,39.7 46.27,81.2 38.8,120.9 -7.84,41.7 -62.47,43.4 -75.66,80.2 -0.75,22.1 3.91,43 13.98,62.6 -3.23,24.7 -16.54,40.1 -39.92,46.3 -60.28,45.8 -105.43,43.4 -110.84,-32.4 -3.75,-52.5 5.26,-297.7 -54.14,-315.9 -32.49,91 -75.23,155.4 -70.05,258.7 3.41,34.9 8.27,69.6 14.57,104.1 -16.9,34.4 -25.35,71.1 -25.33,110.1 15.17,72.5 53.76,129.7 115.76,171.5 46.71,35.6 87.91,76.6 123.61,122.9 -1.56,51.6 -14.72,100.5 -39.48,147 -31.68,84.4 -23.22,163.2 25.37,236.3 46.91,51.6 97.04,32.7 98.24,101.6 1.34,77.4 -74.33,75.1 -114.78,122.4 -92.74,108.5 78.69,238.5 12.56,342.4 -34.01,23.4 -67.57,47.3 -100.68,71.9 -25.84,24.2 -53.47,46.1 -82.89,65.7 -82.53,-20.9 -67.35,-165.5 -98.77,-227.2 -2.83,-30 -17.57,-52.2 -44.23,-66.4 -8.94,0.2 -17.89,0.5 -26.83,0.8 -40.9,-29.1 -49.37,-88.9 -117,-84.6 -87.45,5.6 -137.35,183.6 -224.14,126.3 -79.81,-52.7 -37.48,-185.4 -23.12,-250.2 21.98,-99.2 53.43,-194 -10.36,-283 -42.54,6.4 -78.87,25.2 -109,56.3 -19.77,25.6 -44.01,32.2 -72.71,19.6 -41.39,-20.3 -50.5,-102.9 -55.2,-143.1 -7.87,-67.4 44.64,-184.9 -8.53,-239.8 -48.04,-49.5 -119.01,0 -130.54,-74.3 -9.51,-61.3 30.49,-131.1 8.67,-196.3 -25.6,-76.6 -72.45,-48.4 -124.77,-15.9 -102.15,63.4 -131.03,24.6 -161.23,-84.3 -34.22,-123.4 -63.09,-256.3 -64.95,-384.8 18.43,63.6 61.69,-82.7 61.46,-82 18.94,-63.7 30.81,-128.2 42.49,-193.5 -57.81,-14.2 -105.28,16.2 -164.9,-12.6 -27.89,-13.5 -73.59,-56.4 -85.32,-86.5 -28.7,-73.8 69.57,-163.5 101.63,-228.1 21.76,-43.8 64.32,-125.1 29.43,-173.9 -23.42,-32.7 -82.39,-35.7 -112.68,-59.5 -28.35,-22.3 -48.81,-53.1 -75.33,-77.6 -20.3,-18.8 -54.72,-31.3 -61.25,-59.7 84.01,-17.1 85.21,-12.5 97.15,-110.5 7.39,-60.6 10.09,-215.6 -64.37,-255.4 31.81,-8.6 38.94,-95 36.08,-118.4 -9.92,-81 -49.17,-124.7 -129.04,-93.8 -35.78,-28.2 -5.74,-160.6 1.86,-206.7 13.35,-80.9 30.7,-102 103.94,-108.6 69.73,-6.3 124.94,-6.1 139.93,-88.6 15.78,-86.8 0.24,-182 9.16,-270 7.08,-69.9 26.02,-94.8 74.39,-143.1 47.25,-47.2 104.64,-124.6 171.11,-148.4 103.75,-37.3 116.68,116.5 142.63,171.1 22.35,47 48.34,77.1 94.85,97.5 -1.29,129.3 160.01,204.9 274.58,156.9 49.29,-20.7 84.24,-73 79.25,-126.8 -5.34,-57.5 -30.2,-54.7 -78.16,-77.5 -109.46,-51.9 -220.61,-161.7 -206.09,-295 6.2,-56.9 16.42,-64.9 66.82,-59.5 51.73,5.6 74.17,37.8 110.17,-16.1 32.48,-48.7 14.76,-136 59.19,-177.3 60.68,55.5 120.6,75.6 199.64,99.5 24.05,7.2 72.06,13.3 87.9,37.2 20.95,31.6 4.6,59.9 31.06,92.4 35.71,43.8 103.65,63.7 153.82,89.1 63.62,-31.4 67.78,-155 114.36,-211.2 88.79,-107.2 302.7,-190.9 403.63,-57 64.48,85.5 205.56,352.6 327.11,194.8 17.8,-48.7 34.23,-97.9 49.28,-147.5 24.73,-47.3 50.76,-93.9 78.11,-139.8 25.13,-42.8 65.56,-131.6 122.25,-147.5 78.96,-22.1 183.7,34.1 186.09,-102.2 1.79,-101.6 -77.76,-130 -159.63,-126.4 -12.87,-31.8 21.19,-90.7 39.32,-118.7 30.25,-46.6 63.08,-49 112.56,-65.3 59.28,-19.4 116.18,-31.8 130.62,-109.1 8.38,-44.8 3.29,-137.9 -40.71,-167.5 -47.95,-32.3 -149.43,5 -180.24,48.4 -25.39,35.8 -29.96,157.6 -104.52,124.7 -6.78,-32.8 -0.58,-61.5 -34.27,-78.7 -24.14,-12.3 -57.58,-8.5 -69.19,13.2 -18.76,-104.4 -187.37,-178.6 -249.19,-77.3 -16.51,27.1 -38.93,79 -2.84,101.6 21.64,13.5 49.8,7.4 74.51,24.6 28.61,20 67.17,55.5 91.71,81.8 47.25,50.6 6.88,3.9 7.03,45.7 0.24,71.9 -10.84,164.7 -30.65,233.4 -71.89,-18.5 -237.48,-189 -290.02,-68.3 -15.31,35.1 6.16,89.5 -21.05,119.1 -53.62,58.3 -197.19,32.1 -257.68,7.6 -15.36,-9.5 -31.58,-17.3 -48.64,-23.2 -26.38,9 -53.57,13.4 -81.56,13.2 -70.63,-10.5 -105.62,-95.7 -139,-145.9 -45.27,-68.1 -87.03,-105.6 -169.62,-100.6 -78.37,4.7 -165.5,25.3 -237.64,56.6 -21.1,-36.6 -8.34,-90.9 -28.7,-132.3 -28.28,-57.5 -33.84,-41 -68.71,-68.6 -29.95,-23.6 -49.46,-52.7 -75.24,-82.4 -42.32,-48.8 -84.34,-67.7 -132.27,-105.8 12.71,-23.7 32.26,-11.3 52.68,-25.1 26.86,-18 32.97,-61.7 62.73,-81.6 36.04,-24 70.97,-24.1 103.08,-57.6 23.11,-24.1 53.64,-101.2 89.36,-115.4 43.69,53.4 70.5,99.4 138.21,117.3 29.76,-36.5 52.08,-105.6 99.79,-122.8 31.21,-11.3 64.65,4.9 95.99,-1.2 -32.32,-137.1 165.11,-97.8 170.21,-227.6 -45.22,-23.2 -110.02,-50 -147.92,-81.9 -65.77,-55.4 -74.29,-138.2 -76.95,-222 22.71,-6 45.79,-6.3 69.23,-0.9 64.31,-14.2 108.54,-52.6 132.69,-115.5 31.74,-103.5 -50.48,-184.1 -106.07,-257.6 -31.25,16.4 -25.77,54.4 -33.64,84.6 -9.11,34.9 -8.8,36.7 -33.76,68 -30.09,37.7 -70.13,78.2 -91.96,122.1 -24.1,48.4 -14.73,64.6 -5.97,114.7 12.32,70.4 -35.58,84 -91.78,122.9 -25.53,17.6 -43.02,34 -68.21,49.2 -17.47,10.6 -63.57,21.1 -75.56,40 -22.66,35.8 -8.89,88 -43.93,125.7 -50.53,54.2 -81.38,14.5 -140.03,37 -33.67,12.9 -67,58.3 -87.54,85.7 -52.11,69.4 -112.96,226.1 -205.27,241.5 -42,7.1 -61.37,-33 -100.75,-34.8 -47.04,-2.3 -114.1,50.4 -142.59,79.4 -51.98,52.9 -65.01,122 -120.76,170.8 -50.08,43.8 -116.91,57.2 -173.66,90.5 -27.86,-36.1 -37.73,-123.8 -46.6,-168.1 -7.74,-38.7 -11.81,-46.5 -0.94,-89.7 19.62,-78.1 34.54,-156.5 91.88,-216.6 19.14,-20 68.45,-41.3 73.18,-67.7 -28.04,-34.1 -89.98,-34.4 -106.69,-61.9 5.7,-35.9 9.32,-72 10.88,-108.3 -1.11,-39.3 12.36,-72.7 40.42,-100.3 38.67,-37.8 97.42,-46.6 131.33,-91.3 64.66,-85.3 -5.89,-150.4 -47.71,-223.7 -57,-99.8 -47.77,-232.9 -35.7,-342.8 4.37,-39.7 2.56,-89.7 34.45,-113 23.33,0.9 46.22,-2.2 68.64,-9.5 61.51,-23.7 92.94,-71.4 94.28,-143 30.85,-131.8 -0.06,-269.7 -14.33,-400.2 91.18,41.6 143.62,-296.4 161.9,-345.9 18.98,-51.4 53.6,-88 103.86,-110.5 32.95,-14.8 73.48,-7.5 103.65,-25.5 13.72,-49.1 -58.81,-67.2 -81.76,-98.8 -55.33,-76.2 -37.69,-155.5 7.83,-232.1 53.91,-90.7 208.82,-240.8 331.91,-236 65.16,2.5 123.06,107.9 190.85,65.4 50.29,-31.5 19.76,-120 85.71,-130.5 -2.08,-55.5 -101.85,-124.9 -141.38,-158.3 -31.36,-26.5 -60.77,-51.8 -99.52,-66.9 23.68,5.3 57.97,-18.3 71.09,-37.2 14.01,-20.1 8.91,-54.6 21.89,-75.9 18.09,-29.7 52.54,-38.3 80.4,-54.4 100.11,-58.1 130.69,-173 146.83,-280.7 19.55,-130.6 70.58,-177.3 188.26,-234.9 84.54,-41.5 140.89,-78.1 144.51,-175.5 3.17,-85.8 35.65,-132 113.3,-167.7 35.88,-16.5 77.22,-21.5 110.36,-43.3 38.77,-25.4 49.29,-59.1 63.9,-101.4 24.9,-72 52.74,-126.3 97.89,-187.4 28.61,-38.8 66.12,-73.5 86.68,-115.5 14.75,-30 8.56,-69.7 44.57,-87.9 17.85,-9 48.2,-1.4 67.11,-1.6 51.5,-0.6 140.1,-14.5 135.24,60.4 -3.92,60.3 -60.62,104.2 -62.28,169.4 -0.68,26.6 -1.97,50.7 -4.25,76.5 -0.63,7.1 -15.02,7 -13.54,21.8 4.34,43.6 61.18,66 91.27,81.7 21.55,11.2 50.52,16.4 47.52,51.8 -0.31,3.7 -2.44,7.6 -4.25,11.5 69.09,-15.5 175.69,54.1 223.26,82.2 47.65,28.2 75.19,55.6 131.92,68.1 59.46,13.1 124.39,33 185.11,35.9 -71.44,-92.6 -121.43,-179.4 -26.52,-271 50.64,-48.9 118.97,-82.8 177.17,-122.6 19.32,-13.2 47.96,-28.9 66.03,-49.9 -7.49,25.1 1.43,53 21.18,68.5 33.03,26 143.86,10 184.78,4.2 91.62,-13.1 171.71,-48.5 179.14,-142.3 27.48,-4.9 39.4,28.1 62.87,36.5 27.16,9.8 52.8,4.9 78.12,-7.1 33.21,-15.7 117.82,-84.4 121.24,-123 5.01,-56.8 -63.79,-144.6 -102.71,-176.4 -54.63,-44.5 -137.48,-49.2 -186.54,-94.7 11.38,18.2 25.14,34.6 36.8,52.6 -31.9,-36.3 -96.91,4.2 -120.39,-33.8 130.61,-151.9 324.64,-241.5 476.64,-368.9 63.47,-53.2 129.05,-111.2 181.55,-175.8 14.88,-18.3 33.11,-62.8 54.96,-76.4 64.52,-40.2 168.52,71.9 221.67,38 60.33,-38.5 -49.5,-73.7 -63.68,-101.9 71.9,-165.9 235.9,-245.2 386.74,-327.7 66.23,-36.2 207.58,-93.2 210.59,-184.5 72.68,11.1 107.67,12.5 182.9,-10.7 93.05,-28.7 222.31,-90.4 323.16,-71.5 69.74,13.2 59.8,43.3 70.58,98.7 15.49,79.5 60.14,138.3 109.19,199.1 39.29,48.6 38.32,70.6 -20.01,90.7 -78.24,27 -127.85,59.1 -150.17,145.7 -15.26,59.1 -14,74.6 -73.19,86.8 -43.93,9.1 -156.85,-3.5 -179.18,41.4 -35.95,72.3 83.33,180.3 125.65,222.3 38.81,38.5 67.07,61.3 83.48,110.7 22.95,69.2 16.82,189.1 77.54,238.2 57,46.1 100.23,6.1 147.61,-22.5 82.55,-49.8 230.4,13.6 299.18,74.2 147.17,129.8 -40.83,238.9 -34.53,381.4 59.47,0.8 146.04,-76.6 197.48,-51.1 48.05,23.8 49.03,121.4 83.9,160.8 25.74,29.1 88.92,49.3 128.36,28.9 24.59,-12.7 26.08,-40.2 57.55,-39.6 -11.36,-47.3 -41.97,-93.1 -50.78,-139.4 -8.79,-46.2 2.94,-27.6 27.55,-57.3 26.17,-31.6 35.42,-71 52.64,-108.5 37,-80.5 6.49,-122.6 -62.68,-174.6 -28.92,-26.9 -62.97,-44.5 -102.15,-53 -21.69,-3.5 -43.3,-3.5 -64.84,0 -38.49,-8.3 -31.68,-2.6 -53.81,-38.9 -44.97,-73.7 -47.1,-185.9 -102.62,-252.2 53.43,10.6 105.4,5.5 154.06,-20.2 31.39,-19.9 61.37,-41.6 89.95,-65.3 18.1,-15.3 32.83,-33.2 44.19,-53.8 44.37,-12.9 57.24,24.6 76.18,59.6 19.52,36 48.45,65 66.38,101.5 36.45,8 47.92,-47.8 77.72,-57.4 24.67,-8 50.32,2.4 72.01,14.2 46.34,25.3 53.29,45.2 73.48,101.7 13.29,37.2 5.81,87.5 18.3,120 12.49,32.5 16.75,11.1 36.97,32 23.64,24.4 26.85,67 56.18,87.2 28.35,19.5 40.96,19.5 66.86,-5.6 40.04,-38.7 53.73,-87.9 116.08,-112.1 64.82,-25.1 150.38,-18.5 207.97,26.7 45.78,36 28.55,67.7 30.56,120.6 2.48,65.5 70.09,108.8 103.42,168.9 17.84,32.1 39.44,57.8 61.8,86.9 37.56,49 34.77,65.3 98.23,41.9 22.36,-8.3 41.12,-22.6 64.68,-27.7 37.78,-8 92.79,22.7 119.99,-17 -28.1,-59.4 -66.35,-151.5 -27.5,-218.7 34.9,-60.2 123.1,-14.8 154.1,-95.8 45.3,-118.5 -44.4,-157.9 -127.7,-207.3 -46.5,-27.6 -88.77,-63.8 -130.57,-97.9 45.13,-19.3 95.17,-26.6 92.47,-81.3 -2.3,-47.8 -27.54,-89.1 -18.84,-140.5 10.14,-59.8 92.44,-65.6 99.54,-120.9 7.7,-59.3 -88.1,-180.9 -148.2,-171.9 -51.15,7.6 -46.44,33.1 -52.26,72 -7.09,47.5 -28.57,78.9 -61.82,113.4 -30.65,31.8 -63.22,75.2 -106.6,89.6 -101.89,33.8 -188.66,-100.2 -263.23,-149.9 -41.87,-27.9 -85.06,-82 -134.52,-52.2 -53.88,32.3 -62.9,78.1 -136.29,70.7 -70.28,-7 -126.58,-43.8 -200.28,-41.4 -21.72,0.7 -35.28,-1.7 -52.96,12.1 -14.38,11.3 -12.76,41.2 -30.51,49 -15.55,6.9 -158.31,-44.4 -170.02,-57.6 -37.61,-42.3 -19.6,-130.3 2.72,-175.7 24.83,-50.5 51.05,-75.4 41.26,-137.1 -9.72,-61.2 -81.89,-124.4 -80.01,-180.9 26.42,-6.5 51.43,0.7 77.96,-4.3 38.08,-88.1 -73.46,-215.4 -150.62,-236.9 -20.71,-5.7 -52.32,-17.6 -73.99,-9.8 -31.54,11.4 -19.85,41.9 -47.3,58.4 -65.19,-25.3 -158.82,-124.2 -155.17,-200.4 3.4,-71 38.62,-62.9 97.69,-62.5 27.87,0.2 56.84,-2.6 84.54,-0.9 30.1,1.8 65.51,23.1 93.23,20.6 41.5,-3.6 42.1,-24.3 93.99,-10.2 54.61,14.9 107.6,37.3 163.13,48.7 73.42,15.1 100.99,-21.4 159.95,-53.5 58.17,-31.8 54.18,-41.7 71.02,-102.8 11.55,-41.9 43.32,-86.2 80.84,-109 55.9,-33.9 121.73,-12.1 182.46,-23.6 29.79,-5.7 86.88,-33.2 118.47,-13.3 44.44,28 52.02,110.3 102.39,143.8 29.95,19.9 92.9,48.5 129.46,40.6 28.33,-6.2 60.14,-48.5 81.46,-68.2 46.49,-43 52.55,-56.5 121.42,-57.5 122.99,-1.9 231.29,22.8 348.19,45.5 -2.7,52 91.7,95.9 127.1,119.5 58,38.6 106.2,101.1 181.4,104.6 105.7,4.8 79.5,-128.1 159,-147 68.1,-16.2 88.5,45 148.7,44.7 56.9,-0.2 85.2,-49.8 88.8,-99.8 3.4,-48.7 -51.3,-144.6 -11.8,-180.7 41.8,-38 112.1,23.6 153.5,39.7 64,25 143.5,43.4 211.6,28.4 57.9,-12.8 72.8,-32.7 97.9,-79.1 22.7,-42.1 40.5,-50 91,-29.2 80.4,33.1 142.8,88.8 234.6,93.4 47.2,2.4 84.6,-1.4 127.5,-16.8 40.5,-14.6 40.1,-13.7 85.5,14.4 61.6,38.2 108.1,75.8 179.4,94.7 53.8,14.2 71,-8.6 122,-15 8.1,-72.6 38.2,-88.2 105.9,-52.9 55.9,29.1 90.3,48.9 128.1,97.2 48.5,62.1 86.7,117.9 160,150 60.2,26.5 124.4,18.7 184.7,-0.5 87.7,-28 154.6,-19.3 242.2,-5.7 35.5,5.6 73.7,26.9 109.5,27.3 21.7,0.3 36.1,-8.1 60.2,-2.5 61.8,14.5 82.8,108.7 143.4,121.7 85.8,18.5 52.4,-78.7 66.5,-123.2 47.4,23.4 93.3,46.7 135.8,85.8 34.5,31.8 53.1,57.7 95.1,78.2 106.7,52.1 194.8,159.7 321,143 48.9,-6.5 71,-35.5 123.5,-6.6 41.5,22.9 71.3,62.5 110.3,89.2 37.8,25.8 68.1,13 110.9,24.4 22.8,6 37.4,12.4 66.8,15.4 26.3,2.7 32,12.4 52.9,19.2 28.9,9.3 52.2,2.3 81.1,21.8 17.8,12 26.8,28 42.1,41.9 34,31 66.8,44.2 90.8,82.4 29.4,46.6 49.4,94.3 91.9,134 54.3,50.8 128.5,70.2 197.7,92.7 43.4,14.2 103.6,35.2 138.3,66.4 27.1,24.2 32.4,57.5 45.4,87.4 14.6,33.7 21.4,77 46.3,109.1 17.8,22.9 53.2,40 67.6,65 10.8,18.8 7.4,36.9 14.1,57.9 4,12.7 21.1,31.8 26.5,45.6 14.1,36.2 18.3,75.2 -4.9,108.6 -17.5,25.2 -48.5,42 -67.6,66.2 -17.3,22 -25,65.9 -56.9,69.7 -4,-36.7 -57.2,-139.4 -91,-157.9 -24.6,-13.5 -57.2,-5.1 -78.9,5.4 -9.8,4.7 -15.2,20.2 -24.4,27 -8.4,6.3 -23.5,3.1 -32,9.2 -52.5,37.6 -51.8,74.2 -120.2,39.1 -46.3,-23.8 -73.3,-53.2 -95.2,-100.4 -24.7,-53.2 8.5,-86.6 5.5,-149 -3.2,-64.2 -58.3,-120.4 -103.4,-164.6 -24.9,-24.5 -107.5,-148.2 -153.6,-123.2 -44.1,23.8 9.8,34.6 20,42.6 36,28.5 29.3,20.9 20.7,60 -2.6,12.1 -6,70.8 -13.6,79.2 -10.9,12.2 -64.4,4.4 -79.1,3.6 -61,-3.7 -91.2,-31.6 -149.1,-5.6 -26.7,12 -47.6,26.7 -77.3,26.6 -20.5,0 -47.7,-24.5 -62.6,-19 -30.3,11.2 13.4,90.7 -13.6,126.4 -30.1,39.7 -35.4,13.7 -78.1,13.8 -34.9,0 -44.5,20.5 -72,32.9 -32.6,14.7 -32,2.9 -62,-1 -34.9,-4.4 -18.7,-5.4 -53.7,8.1 -16.4,6.3 -52.1,16.6 -64.8,27.7 -19.1,16.6 -20.4,44.6 -36.5,56 -29.8,21.1 -124.6,-3.3 -161.8,2.8 -13.8,2.2 -16.9,21 -32.7,21 -20.9,0 -12.6,-16 -25.2,-18.2 -26,-4.6 -50.4,-4.9 -77.7,-4.5 -60.6,0.7 -95.9,-15.6 -148.6,-36.1 -40.3,-15.7 -108,-71.7 -145.4,-31.7 -19.9,21.2 -6.1,40.8 -18.6,63.7 -8.1,14.7 -31.1,28.6 -42.3,42.2 -47.3,-20 -94.4,-37.2 -124.4,23.1 -24.4,49.2 -20.9,72.8 -76,93.3 -43.3,16.1 -95.6,10.4 -144.2,10.1 -23.3,-0.2 -57,-7.5 -78.2,4.1 -20,10.8 -19.2,32.4 -45.2,37 7.3,14.2 24.1,24.3 23,42 -4,63.1 -130.2,121.4 -184.3,138.3 -55.7,17.4 -102.9,-10.2 -154.6,13.9 -18,16.4 -36,32.9 -54,49.4 -37.9,41.6 -82.5,73.2 -133.6,94.7 -112.4,57.5 -194.9,4.5 -308.8,-14.6 -79.4,-13.3 -115.3,18.5 -150.3,84.5 -10.9,41.8 -32.1,76.7 -63.5,104.9 -26.4,32.9 -57.4,60.8 -93,83.9 -24.7,51.5 21.6,112.4 28.9,164.4 -61.2,30.5 -116.4,27.8 -183.8,32.2 -63.1,4.2 -87.5,22.3 -99.2,80.2 -11.4,56.6 38.9,117.9 -30,155.9 -57.5,31.7 -153.2,18.3 -215.2,18.1 -98.6,-0.3 -399.5,25.2 -313.9,194.3 43.9,25.7 87.8,51.5 131.7,77.3 59.8,15.4 119.6,30.9 179.4,46.3 71.8,5.8 143.3,-15 214.4,-15.2 82.3,-0.2 148.7,47.4 233.6,36.4 52.5,-6.9 103.8,-19.3 155.7,-29.8 87.7,-17.6 136.6,-7.9 224.5,7.5 58.2,10.2 128.4,9 182.3,34.4 59.6,28 53.7,48.3 78.6,102.8 11.5,24.9 114.9,124.7 104.4,89.6 43,39.9 136.5,84.6 199.1,62.8 54.7,-19.1 29.5,-77.1 27.2,-118.4 -2.2,-41.5 3.7,-86.4 -12.6,-126 -27.5,-66.8 -99,-108.3 -165.8,-121.4 -60.8,-12 -90.1,-11.5 -129.3,-60.8 -32.3,-40.7 -152.1,-199.2 -114.9,-267.1 12.4,-22.7 49.6,-33.5 58.6,-60.3 18.2,-54.1 -45.4,-169.6 -61.9,-219.1 39.7,-45.1 181.5,-37.3 213.2,18.2 4.7,45.8 22.6,86.7 53.6,122.5 19,24.5 38,49.1 57,73.6 18,43.8 17.9,87.9 -0.1,132.3 1.6,70.3 33,123.7 94.3,160.3 30,8.8 60,17.5 90,26.3 47.7,-4.5 76.2,-29.3 85.5,-74.4 38.1,-34.5 83.8,-45.4 137.1,-32.5 38.3,-11.1 74.2,-9.1 107.9,6.1 27,4.6 39.8,23.6 38.4,56.8 19.2,49.4 53.7,83.5 103.5,102.4 56.9,28.5 136.1,30.9 151.6,103.6 -6.8,46.5 11.7,82.8 55.4,108.8 45.6,42.7 98.6,61.8 158.8,57.3 18.5,-21.7 22.1,-44.7 10.8,-69 -8.2,-24.3 -9.7,-49.2 -4.7,-74.8 15,-34.5 73.8,-51.6 89.6,-87.8 28.9,-65.8 -21.2,-152.6 -64.1,-196.7 -49.6,-51.1 -118.5,-77.8 -178.4,-116.2 -121.3,-77.7 -230.1,-229.6 -213.2,-377.3 11.1,-97.8 47.6,-185 115.3,-256.4 48.4,-51.1 107.3,-76.5 157.4,-123.7 -1.9,-33.3 -25.5,-56.1 -47.6,-77.8 82.2,-12.6 154.9,-20 238.4,-8.1 76.1,10.8 179.2,14.6 245.1,57.2 -14.8,11.8 -33.1,16.7 -51.7,13.5 113.1,9.6 189.8,78.9 293.2,111 48,14.9 91.8,18 138.7,35.3 58.9,21.8 120.1,31.8 150.8,-35.9 26.5,-58.2 -1.7,-73.8 77,-86.4 56.8,-9 160.1,-23.7 207.9,7.7 33,1.3 47.8,20.4 44.2,57.4 -10.5,23.5 -21,47.1 -31.5,70.6 -34.6,66.6 -65.7,100.9 -66.4,176.5 -0.3,40.2 3.2,78.4 -5.9,118.4 -10.8,47.2 -27.5,76 -71.4,98.9 -49.1,17 -99.5,28.2 -151.1,33.5 -51.5,5.8 -102.1,16.3 -151.8,31.7 -62.3,56.4 2.9,286.6 79.1,206.5 26.8,-28.2 18.2,-48.3 60.4,-64.4 55,-20.9 124.9,-20.8 183.1,-32.4 -80.1,73.8 78.2,78.7 122.3,67.7 176.9,-44 72.1,-203.5 105.7,-314.2 68.3,-225.5 277.7,-386.4 508.5,-401.2 66.5,-4.3 141.5,-9.9 192.4,41.8 23.9,24.3 28.6,66.8 58.5,83.5 63.7,35.5 161.4,-40.6 240,-19.5 50.9,13.7 102.2,55.1 122.6,102.7 24.6,56.9 -4.4,99 8.1,157.9 14.6,68.1 90.7,120.2 148.7,147.1 102.9,47.8 212.2,32.9 284.3,136.2 49.9,71.6 43.3,181.4 118.5,228.4 72.9,45.6 201.9,48.2 250.6,121.5 28.6,43.1 66.1,147.1 30.1,186.7 -19,20.9 -49.2,22.3 -74.7,31.2 -46.8,16.4 -93.2,41.5 -127,79.5 -86.5,97.4 7.7,158.7 39.8,249 30.7,86.3 -46.4,126.6 -119.3,125.2 -83.2,-1.6 -133.7,-27.6 -205.3,-60.7 -61.2,-28.4 -133.3,-10.7 -197.8,-7 -62.2,3.4 -121,-4.6 -176.8,25 11.3,47.9 62.8,96.1 67.1,140.8 4,41.3 -54.4,74.6 -77.3,103 -43.4,53.4 -46.8,113.9 -84.2,166 -28.1,39.2 -80.7,37.8 -123.7,41.6 -62.4,5.5 -125.9,-7.9 -188.1,-0.3 -122.9,14.9 -171.4,94.1 -189.6,206.9 -17,105.5 15.1,177.2 110.1,208.5 60.2,19.8 121,23.7 160.4,80.3 90.4,129.6 -38.5,245.3 -37.5,372.2 0.8,86.1 93.6,191.1 166.4,226.5 17.6,6.2 35.2,12.3 52.9,18.5 16.2,2.2 27.4,-3.9 33.6,-18.3 88.3,4.3 135.5,87.8 219.7,102.7 53.1,9.4 130.4,-7.6 175.2,-28.6 -52.2,-70 -131.3,-129.9 -176.2,-203.1 -25.9,-42.3 -12.7,-83.7 -38.6,-124.5 -49.4,-77.6 -122.7,-101.9 -6.5,-168.6 32.2,-18.5 99.9,-59.2 135.6,-51.9 53.2,-47.9 108.6,-70.4 181.1,-63.2 53.8,5.3 152,28.7 182.1,82.7 35.9,64.6 -21.7,134.6 2.3,198.3 25.4,67.3 114.9,78.3 175.3,89.5 -10.8,-2.5 76.6,42.8 80.3,45.4 52.9,38.1 15.1,44.1 49,79 23.6,24.3 116,14 144,-5.4 53.2,-36.8 -17.1,-108.1 -37.4,-151.5 -33.2,-70.8 -43.1,-187.9 62.8,-170.4 68.3,11.3 123.2,71.2 143.9,132.7 57.1,-4.1 125.4,-7.5 161,-60.5 31.3,-46.5 29.7,-131.4 -1.6,-177.2 -39.7,-58 -158.8,-89.8 -225.6,-100.7 -127.5,-20.9 -339.1,26.9 -350.5,-159.8 -8.4,-137.8 103.5,-227.4 232.6,-210.4 24.9,5.3 49.9,10.6 74.8,15.8 35.9,10.3 59.9,0.6 72.2,-29 23.9,-32.3 43.9,-67 60.1,-104.1 23,-36.3 45.9,-72.6 68.8,-108.8 42.3,-65.9 104.6,-189.1 196.6,-202.8 52.3,-7.8 117.4,21.4 161.5,43.8 25.4,12.9 55.2,21.4 62.9,51.9 5.5,22.1 -10.4,38.8 -0.2,62.3 10.9,25.3 36.5,30.1 58.7,41.4 44.4,22.7 83.6,51.4 124.2,80.6 85.9,61.7 147.2,117.2 141.9,228 -4.8,101.2 -1.3,188.8 18,288.6 16.4,85.3 -39.4,94.6 -70.9,163.3 -43,94 73,151 102.4,225.5 24.9,62.9 -3.6,97.1 -46.3,143.3 -30.4,32.9 -124.7,118.4 -123.1,168.2 1.8,58.3 112.4,80.4 123.2,142.9 12.4,72 -72,67.5 -89.1,122.4 12.4,31.3 51.4,33.3 64.9,59.4 15.5,30.2 -2.7,74.2 -7.1,105.3 -13.1,92.3 -22.2,217.9 -134,245.5 -76.2,18.8 -98.2,-41.9 -145.6,-92.1 -35.8,-38 -69.1,-82 -128.9,-72.9 -45.7,6.9 -85.2,46.7 -107.7,83.5 -26.4,43.2 -20.8,137.2 -60.9,164.6 -42.8,29.2 -156.6,0.6 -174,-41.6 -22.7,-55.4 -17.8,-97.8 -70.9,-139.5 -29,-22.8 -84,-32.6 -105.2,-65.2 -26.3,-40.4 0.6,-60.8 -11.5,-102.8 -8.6,-30 -37,-51.1 -59.4,-70.2 -47.2,-40.3 -47.3,-33.6 -99.1,-11.7 -88.7,37.6 -186.5,92.8 -265.6,150.2 -20.7,15 -102.3,74.5 -80.1,117.8 14.1,27.8 44.3,23.7 68.7,34.9 180,82.3 436,63.1 500.2,296.5 18.5,67.3 -3.8,164.6 42.7,218.9 43,50.2 122,69.5 172.8,110.7 178.2,144.3 51.2,320.3 -75,451.1 10.1,32.5 63.1,58.3 84.4,82.8 20.4,23.5 37.1,52.5 52.8,79.3 34.5,58.8 71.5,127.9 87.9,194.3 27.2,110.4 -43.5,205.6 82.3,267.2 96.5,47.2 233.7,82 207.6,216.9 -8.6,44.7 -29.7,60.3 12.2,94.4 31.5,25.8 64.1,31.4 103.4,31.1 137.3,-1.1 158.2,-102.6 153.3,-217.5 -1.6,-36.2 4.5,-72.3 -17.9,-103.3 -31.7,-43.8 -120.7,-56.6 -167.4,-83.9 -51.7,-30.2 -86.3,-52.7 -73,-112.8 6.8,-30.4 17.5,-48.6 7.8,-80.4 -4.6,-15.1 -20.1,-24.2 -25,-41.2 -21.9,-76 37.4,-134.8 99.4,-164.5 37.2,-17.9 69.3,-48.1 111.8,-41.2 88.2,14.3 72.4,146.7 166,166.5 78.1,16.6 220.2,-19.2 201.4,-126.4 -9.9,-56.1 -89.2,-73.6 -120.6,-117.6 -13.9,-19.6 -23.4,-44.6 -33.6,-66.3 -34.1,-72.7 -93.4,-89.5 -146,-144.2 -53.8,-56.1 -39.2,-177 -12.3,-244.7 12.7,-32 41.9,-87.2 69.5,-107.4 38.5,-28.3 79.1,-12.7 123.8,-19.3 108.3,-16 265,-100.6 291.6,72.2 6.4,41.7 -1.6,93.1 -2.7,135.6 -1.8,65 -8.6,81.2 51.4,102.8 41.1,14.7 79.8,17.7 118,42.2 30.9,19.8 56.7,46.1 84.8,69.2 30.5,25 77.7,42.5 102.8,70.3 66.3,73.9 -19.5,253 -28.7,329.6 -4.6,38 -3.4,56.1 -37.5,84.5"
         style="fill:#9fa8ae;fill-opacity:1;fill-rule:nonzero;stroke:none"
         id="path14" />
      <path
         d="m 7917.43,8520 c -4.6,-29 -8.73,-76.7 -28.28,-98.7 -21.13,-23.9 -20.6,-12.1 -49.84,-19.6 -30.19,-7.7 -47.67,-29.9 -73.73,-39.5 -11,-4.1 -81.04,-9.9 -74.77,-34.3 -16.62,6.7 -40.27,6.3 -53,16.6 -57.36,46.5 48.65,108.9 67.91,161 18.62,50.3 -7.03,32.2 -26.03,64.2 -14,23.5 -22.73,73.6 -45.92,89.1 -38.18,25.4 -91.75,-2.7 -134.15,21.2 -67.31,38 -42.14,149.8 -113.94,173.6 -29.06,9.7 -72.88,-15.3 -98.71,2.8 -17.89,12.5 -31.51,81.7 -23.83,100.9 16.89,42.1 48,14.9 81.97,-0.2 43.09,-19.3 66.85,-28.8 112.14,-11.3 80.17,31 66.89,127.4 11.92,185.6 -17.15,18.2 -49.53,25.4 -59.37,51.3 -14.08,37.1 14.1,83.8 17.39,122.6 5.2,61.3 5.19,79 -59.16,85.6 -53.73,5.5 -99.43,-6.2 -143.84,-36.2 -4.46,26.1 -11,70.6 -25.33,92.1 -30.85,46.2 -69.14,42.3 -119.65,45.8 -13.03,40.7 4.83,185.5 60.15,189.5 21.4,1.6 43.06,-25.9 61.36,-34.1 30.08,-13.4 48.57,-4.1 79.37,-10.8 56.75,-12.5 21.39,-47.6 56.12,-73.3 46.64,-34.3 62.77,42.1 91.64,61.3 41.98,27.9 64.81,-15.4 97.19,-46.3 47.24,-45.1 107.66,-49.3 147.37,-105.5 67.53,-95.4 -56.6,-118.2 -54.16,-208.7 2.08,-77 121.13,-118 152.78,-181.1 6.78,-13.5 4.24,-31.5 10.47,-44.1 10.81,-21.9 34.07,-41.7 48.29,-61.8 29.37,-41.5 32.33,-64.7 30.22,-113.4 -0.69,-15.7 5.27,-32 -3.64,-46.6 -8.51,-14 -29.65,-14.8 -37.55,-33.9 -23.76,-57.6 50.78,-85.4 79.17,-115.3 37.86,-39.8 28.11,-94 19.44,-148.5 z m 7359.67,1381.6 c -49.4,32.9 -60.2,82.2 -32.6,148.1 2.2,35.1 4.4,70.2 6.7,105.3 -25.6,31.6 -58.6,46.8 -99.2,45.3 -18.2,58.5 -11.3,115.7 20.8,171.5 5.4,34.9 10.8,69.8 16.3,104.6 -27.5,52.3 -70.6,83.3 -129.2,93.1 -23.5,16.1 -45.7,33.7 -66.7,52.9 -55.5,29.6 -92.2,31.5 -135.6,-20.7 -33.5,-40.3 -24.2,-112.7 -73,-139.3 -27.3,10.6 -49.7,27.8 -67.2,51.6 -8.9,24.3 -5.8,47.4 9.3,69.2 7.5,69.9 -8.7,83.3 -66.6,133.3 -24.9,17.7 -47.8,37.8 -68.7,60.2 -15.8,29.9 -30.6,60.3 -44.2,91.2 -19.9,12.3 -39.1,25.5 -57.7,39.7 -22.1,38.6 -39.5,79.3 -52.2,121.9 47.3,68.3 204.3,46.7 260.8,8.9 28.1,-20.1 50.8,-45.4 68.2,-75.8 30.9,-14.7 61.8,-16 92.6,-3.9 111,17.7 140.8,88.2 80.3,186.6 -54.3,88.3 -70.7,66.9 16.2,162 55.4,40 87.9,91.5 97.6,154.7 25.2,41.3 16.4,76.4 -26.2,105.2 -73.1,112.2 9.6,229.1 -42.5,354.1 -56.6,135.9 -176.7,139.5 -279.2,211.1 -1.6,1.7 -2.8,3.5 -4.3,5.1 l 27.4,12.3 c 15,21 -11.2,57.7 6.7,75.6 12.8,12.8 49.9,1.9 67.2,4.8 24.6,4.3 30.9,18.7 63.3,19.3 59.7,1 75.3,-24.3 117.3,-57.1 29.5,-22.9 107.1,-95.3 140.6,-88.7 35.5,7 64.7,61.7 94.4,81.3 34.3,22.9 89.9,49.3 130.4,59.4 32.4,8.2 72.3,11.1 104.7,0.5 47.4,-15.5 34.9,-34.1 43.3,-75.1 56.9,-8.9 112.2,-45.4 167.2,-8.6 34.5,23.2 65.3,147.7 2.1,128.4 18.1,21.1 88.4,62.5 116.3,63.8 48.1,2.3 53.8,-44 102.3,-43.5 35.6,0.3 87.6,25.4 108.4,57.1 23.8,36.1 9.9,68.3 40.8,103.2 18.4,20.8 48.5,62.5 76.6,68.4 64.9,13.7 47.3,-59.8 87,-80.1 67.7,-34.6 185.7,135.1 59.7,144.9 4.9,24.3 35.5,32.5 59.6,37.7 27.8,6 54.2,7.7 82.3,14.9 57.4,14.7 90.6,-11 103.8,66.3 9,52.9 -26.2,80.7 -47.7,122.3 -34.7,67.2 1,64.7 51.3,47.4 25.3,-8.7 52.2,-11 73.1,-29.8 16.9,-15.3 23.7,-43.7 40.7,-59.2 34.5,-31.6 87.1,-27.2 88.3,-80.8 1.5,-71.8 -75,-139 -100.7,-200.4 24.3,-35.4 73.3,-25 108.3,-46.2 31.4,-19.2 51.9,-72.2 89.8,-58.2 9.5,3.5 21,26.1 29.2,32.4 18.4,14.1 39.3,19.2 57.7,34.3 57.7,47.3 77.5,105.1 29,167.7 -25.7,33.2 -72.3,51.4 -86.6,95.6 -19.5,60.4 15.8,73 57.6,102.9 22.5,16 38.6,37.9 61.7,53.1 19.3,12.7 44.5,13.5 62.8,24.2 27.4,15.9 70.5,67.7 79.1,98.8 -180.8,10.9 -57.2,246 -61.6,331.7 -34.6,4.9 -76.7,4.9 -97.3,42.2 -22.8,41.2 18.2,107 -6.7,146.5 -19,30 -66.4,17.5 -94,44.3 -28.4,27.5 -52.3,51.6 -70,85.4 -41.5,79.4 54.1,173 -48.2,220.9 -42.8,20 -80.5,53.3 -124.2,70.6 -26.1,10.4 -44.2,12.5 -71.9,4.8 -33.4,-9.3 -31.8,-12.7 -61.8,-6 -34.8,7.9 -90.3,22.7 -84,-41.5 3.4,-34.9 42.9,-72.2 23.7,-114 -32,-69.7 -128.2,65.7 -170.6,79.2 -35.5,11.3 -67.5,27 -93.2,6.2 -25.4,-20.5 -13.6,-50.9 -57.1,-34.6 -34,12.8 -31.4,42 -49.3,69.1 -21.1,32 -55.9,43.7 -80.4,71.6 -18,20.7 -18.3,49.9 -43.5,58.8 -52.1,18.3 -94,-31.3 -74.4,50.3 26.4,109.9 81,123.6 176,96.4 52.9,-15.1 81.9,13.6 108.6,56.6 13.5,21.7 31.3,49.4 22.9,73.5 -14,40.2 -53.1,20.7 -80.8,29.1 -30,9.1 -33.8,4.6 -26.9,40.5 6.2,32 33.3,66.5 41.6,101.7 45.4,10.6 79.1,-6.4 119.9,21.8 38.5,26.6 82.3,84.4 60.3,134.3 -15.3,34.7 -52.7,37.6 -81.9,52.2 -49.7,24.9 -30.7,49.8 -44.2,98.8 -16.3,58.9 -48.2,58.6 -68.1,5 -13.4,-35.8 -25.8,-94.4 -66.7,-110.2 -45.1,-17.4 -49.9,33.2 -88,64 -35.6,28.8 -41.5,25.2 -77.5,6.2 -13.4,44.5 -4.7,105.2 -4,150.7 1,75.6 3.9,69.2 -61.5,72.6 -63.8,3.4 -86.7,52.3 -125.9,96.3 -37.3,42 -91.5,87 -142,111.9 -49.7,24.5 -90.9,24.4 -134.7,-13.3 -48.8,-42.1 -8.1,-67.6 -28.4,-113.1 -18.7,-41.8 -58.1,-2.3 -92.5,-19.9 -46.4,-23.8 -12,-96.1 -51.5,-121 -37.5,-23.6 -94.4,41.6 -117.4,63.2 -45.3,42.7 -157.8,169.7 -234.6,138.1 -56.6,-23.2 -60.5,-137.8 -76,-185.9 -11.8,-36.8 -14.5,-66 -50.4,-85.2 -67.6,-36.2 -112.4,33.6 -171.8,57.1 -40,15.8 -122,28.2 -155.7,-7 -50.1,-52.2 4.8,-109.4 -0.6,-163.6 -80.8,-33.2 -37.5,-162.2 -116.4,-187 -10.4,37.5 -32,70.5 -42.1,106.8 -11.9,42.7 7.1,51.4 12.4,81.1 12,67.7 -27.9,52.9 -53,102.2 -25.6,50.2 -4.8,142.7 41.1,176.9 29.4,21.8 48,-1.1 59.1,45.3 5.1,21.7 -0.5,53.9 -10.8,73.3 -17.9,33.6 -17.7,28 -51.9,25.3 -11.4,-11.8 -24.9,-15.9 -40.5,-12.4 -18.1,10.6 -37.7,16.8 -58.6,18.6 -69.1,4.1 -49.2,-77.1 -90.6,-120.4 -20.6,-21.5 -54.2,-45.2 -78.7,-62.9 -12.2,-1.7 -24.3,-3.4 -36.5,-5.4 -10.8,-18.3 -17.6,-38 -20.5,-59.3 -16.4,-76.1 4.2,-99.2 74.5,-106.3 2.5,-16.4 12.6,-33.1 14.8,-48.2 3.2,-21.8 -8.3,-34.3 -7.2,-52.7 1.4,-25.8 27.2,-40 15.9,-71.7 -19.2,-54 -48.1,-16.1 -81.7,-13.1 -21.8,2 -86.8,-23 -99.7,-41.7 -20.9,-30.4 10.4,-60.7 15.9,-88.5 5.1,-26.2 -4.5,-78.7 -19.8,-101.3 -20.3,-30 -65.2,-22 -87.6,-55.6 -26.3,-39.6 -48,-139.2 -16,-180.1 23.5,-29.9 49.8,-33.4 61.5,-74.3 11.5,-40.8 5.1,-62.7 42.5,-93.8 37,-30.7 89.7,-28.4 124.9,-58.2 36.6,-31 60.5,-95.2 82,-137.2 19.3,-37.9 28.5,-73.4 70.3,-90.6 17.9,-7.4 49.5,-1.2 68.4,-5.6 15.9,-3.6 29.6,-14.3 46.2,-17.1 30.4,-5.2 71,0.1 102.3,1 h 0.1 c 0.5,-33.4 3.3,-62.6 18,-95 25.1,-55.1 56.1,-61.2 103.3,-95.2 -5.4,-29.8 -48.7,-56.3 -57.8,-89.2 -15.4,-55.5 29.7,-84.2 17,-140.6 -5.3,-23.3 -20.1,-22.5 -15.1,-52.6 5.7,-34.3 35.1,-45.5 53.4,-67.9 32.3,-39.7 39.2,-76.2 86.9,-107.7 39.1,-25.8 83.9,-39.5 83.3,-92.4 -0.6,-48.9 -34.3,-86.6 -22.6,-144 4.1,-20.3 32.4,-51.4 21.3,-71 -6.4,-11.4 -33.4,-16.9 -46.5,-26.3 -12.3,-8.7 -32.6,-29 -41.1,-41.2 -18.4,-26.6 -4.3,-41.4 -13.4,-68.4 -14.3,-42.9 -77.5,-53.2 -64.5,-112.6 7.3,-33.1 23.5,-23.9 38.8,-49.8 15.1,-25.5 1.9,-61.5 -6.5,-83.6 -3.8,-9.7 -7.6,-17.8 -11.3,-25.1 -103.5,-29.5 -189.3,-95.4 -292.7,-128.5 -76,-24.3 -170.9,-3.7 -240.1,-46.8 -65.3,-40.7 -71.7,-129.5 -126.6,-175.8 -61.5,-51.8 -148.2,12.8 -201.5,-43.8 -49.3,-52.3 11.7,-123.9 -9.5,-180.9 -25,-67.5 -49.5,-26.6 -88.1,-41 -93.2,-34.8 -32.8,-137.2 20.3,-177 58.2,-19 118,-28.9 179.3,-29.8 68.2,-17.4 94.9,-59.2 80.1,-125.2 -35.9,-30.9 -72.9,-35 -111.2,-12.5 -36.6,12.6 -73.8,22.5 -111.8,29.8 -19.5,-12.9 -27.8,-30.6 -25,-53.2 -33.6,13 -61.5,34.6 -83.8,64.8 -26.4,33.1 -57.9,47.2 -94.5,42.3 -73.1,29.6 -96.7,67.4 -103.5,154.7 158.3,76.9 -51.1,206.2 -144.8,221.6 -9.3,60.6 -17.1,104 -71.1,138.4 -73,46.6 -153.6,36.8 -236.8,24.5 -13.5,-38 -12.6,-76.2 2.6,-114.5 -101.6,-31.6 -200,-14.9 -295.1,50.1 -117.1,14.7 -181.5,69.4 -193.4,164.2 -29.7,57.2 -18.5,110.6 33.4,160.3 18.7,32.3 45.5,49.3 80.5,51 47.9,119.4 -183.5,121.3 -234.1,167.7 -26.6,24.3 -21.1,47.4 -27.5,80.3 -14.1,73.3 -48.5,134.8 -103.2,184.4 -47.2,76.9 -116.5,125.8 -208.1,146.5 -48,-46.1 -102,-83.3 -161.9,-111.6 -51.5,43.1 -146.6,101.7 -177.9,159.7 -16.6,30.7 -3.4,48.9 -15.9,85.5 -12.7,37.2 -62.3,55.8 -97,61.2 -70.6,11 -94.7,-17.1 -133.4,-67.5 -30.4,2.9 -59.1,11.7 -86.2,26.5 -55.9,-1.6 -99.6,21 -131.2,67.7 -10.9,42.5 -21.3,85.2 -31,128 -42.7,29.1 -89.2,40.6 -139.7,34.3 -55.2,11.9 -104.9,-1.5 -149,-40.3 -17.6,-44.2 -49,-58.2 -94.2,-42 -44.4,22.4 -90.4,40.5 -138.1,54.3 -55.7,3.8 -97.9,-18.3 -126.7,-66.2 21,-78.6 64.6,-143.1 130.8,-193.6 42.8,-69.8 91.9,-134.7 147.5,-194.6 54.1,-25 78.7,-65.6 73.6,-121.7 -14.5,-27.7 -29.5,-55.1 -45.1,-82.2 45.9,-68 166.3,-32.4 161.1,-149.2 -29.6,-52.5 -59.7,-104.6 -90.5,-156.4 7.9,-32.5 2.9,-62.3 -14.7,-89.5 -83,33.3 -176.3,94.8 -198,190.9 -15.8,70 10,159 -66.7,194.6 -17.7,8.5 -36.3,12.9 -55.8,13.2 -35.3,-1.4 -61.4,16.6 -78.1,53.9 -66.6,45.6 -93.6,5.9 -156.1,-27.8 -116.9,118 -73.1,271.8 -64.9,423.4 -29.9,-1.6 -59.5,1.3 -88.7,8.7 -17.42,23.7 -34.62,47.6 -51.58,71.7 -55.7,44.4 -49.26,-10.5 -114.69,-10.5 -51.97,59.3 -65.35,129.2 -40.15,209.6 22.69,72.1 51.66,141.4 86.92,208 -57.32,22.6 -228.83,43.5 -269.29,-22 -33.86,-54.8 21.23,-132.9 30.04,-183.4 17.05,-97.7 -73.19,-74 -135.9,-82.4 -110.72,-14.9 -95.47,-98.3 -117.15,-187.3 -33.18,-10 -67.12,-15.9 -101.82,-17.9 -58.1,-37.5 -69.05,-88.4 -32.84,-152.8 48.54,-75 102.74,-145.6 162.6,-211.9 51.85,-53.8 70.39,-115.9 55.61,-186.2 -44.83,-30.6 -84.38,-21.3 -118.66,27.7 -27.48,27.7 -58.26,37.7 -92.32,29.7 -64.83,-9.9 -44.69,-39.1 -57.27,-93.3 -40.71,-3.2 -70.81,16.7 -90.31,59.7 -44.57,39 -58.66,85 -42.28,138.1 -18.6,96.6 -245.02,69.4 -312.77,53.5 47.19,24.4 -77.13,79.6 -85.39,83.7 -46.38,17.4 -86.33,44.6 -119.87,81.7 0.41,18.5 0.83,37 1.25,55.5 -7.82,8 -15.63,16 -23.44,24 -54.11,-18.2 -109.08,-23.7 -164.92,-16.5 -61.48,-10.6 -107.19,15.2 -137.15,77.4 -22.2,27.4 -44.39,54.9 -66.59,82.4 -75.01,45.3 -167.04,7.5 -238.45,-23.7 -28.39,-5.3 -50.62,-19.2 -66.67,-41.9 -22.96,-13.1 -27.91,-31.6 -14.82,-55.7 -2.46,-35.2 16.32,-75.8 10.45,-115 -9.69,-64.7 -18.98,-67.2 -87.17,-96.7 -15.73,-6.8 -35.1,-13.4 -56.24,-20 6.87,8.7 12.9,18.6 16.51,31.9 9.75,36.1 4.08,103.5 -18.3,133.5 -20.44,27.4 -45.62,30.9 -64.69,68 -27.66,53.8 0.95,148.6 43.23,198.3 29.8,35 59.59,5.8 103.28,-10.6 40.58,-15.3 77.35,-36.9 123.92,-31.3 100.27,12 123.99,116.9 173.84,186.1 26.59,36.9 49.1,46.7 11.33,82.2 -28.44,26.8 -60.52,33.5 -32.03,82.7 39.47,68.1 90.89,105.8 154.93,143.3 43.49,25.4 52.88,59.6 39.67,113.2 -15.13,61.5 -44.23,58.4 -91.6,71.3 -46.9,12.7 -78.74,21.4 -133.16,21.1 -25.76,-0.1 -58.72,-6.4 -83.37,-1 -22.38,4.9 -30.91,24.2 -57.14,25.1 -4.39,35.8 -29.27,65.3 -25.63,100 2.95,28.2 36.3,67.7 50.45,92 10.84,18.6 19.37,43.2 32.78,59.9 9.86,12.3 30.46,17.1 38.09,31.5 29.64,56.2 -16.46,63.3 -58.13,62.8 -63.7,-0.7 -129.04,-13.1 -183.97,-40.7 -39.56,-19.8 -64.3,-40.3 -83.94,-82.1 -13.09,-27.8 -9.67,-64.3 -37.05,-88.4 3.22,-7.6 4.56,-13.4 8.81,-18.5 -2.31,0.5 -4.52,1.1 -7.42,0.5 -4.52,-40.3 -42.37,-75.8 -82.77,-75.7 -13.93,0 -38.32,39.8 -63.19,13.7 -13.38,-14 0.4,-41.5 -1.98,-58.5 -7.86,-56.2 -46.95,-77.6 -99.36,-57.6 -21.86,8.3 -36.32,43.8 -67.36,39 -22.93,-3.5 -22.03,-24.7 -39.32,-33.6 -88.22,-45 -160.95,94.7 -236.81,114.5 -10.86,-0.5 -21.71,-1.1 -32.56,-1.7 -11.15,1.4 -19.15,7.1 -24.02,17.1 -21.04,4.5 -46.04,9.6 -68.24,5.3 -12.02,-2.3 -24.59,-9.2 -32.51,-17.7 -34.65,4.3 -79.71,-21.7 -104.92,-39.1 -60.25,-41.7 -71.33,-63 -21.17,-113.7 43.63,-44 44.57,-60.5 20.62,-113.2 -22.82,-50.1 -22.4,-94 10.14,-144.4 41.36,-64 7.44,-48.9 -31.86,-101.8 -23.25,-31.4 -34.14,-69.4 -70.54,-93.6 -73.02,-48.5 -156.91,-31.8 -211.24,-118 -57.26,-90.7 54.8,-142.7 87.28,-221.1 17.57,-42.5 26.4,-67.4 61.77,-102.9 27.12,-27.2 59.1,-59.3 96.71,-67.9 26.07,-5.9 57.17,5.1 83.84,1.6 28.22,-3.7 35.36,-16.6 60.18,-22.2 28.19,-6.4 54.51,-6.9 83.29,-14.8 32.03,-8.8 42.14,-7.3 67.37,10.4 40.53,28.3 57.49,66.6 118.87,47.7 51.35,-15.9 42.84,-72.5 72.08,-103.9 -46.67,-43.5 36.01,-118.2 65.86,-149.1 41.64,-43.1 86.63,-35.7 135.25,-33.4 0,-0.1 -0.02,-0.2 -0.02,-0.2 -0.38,-32.7 11.74,-38.1 -11.45,-64.5 -30.69,-9.3 -58.72,-23.6 -84.08,-42.7 -18.35,-8.4 -33,-20.8 -43.96,-37.5 -24.47,-28.3 -23.51,-73.3 -51.57,-95.1 -8.77,-6.9 -33.15,-5.3 -38.77,-11.9 -5.47,-6.5 -6.52,-18.1 -4.36,-28.9 -1.6,-1.3 -3.58,-2.3 -5.01,-3.7 -9.71,-9.8 -36.44,-52.8 -37.09,-66.9 -1.97,-42.8 34.85,-48 8.1,-89 -19.36,-29.6 -60.83,-50.6 -83.69,-81.6 -13.18,-17.9 -9.34,-22 -24.61,-36.7 -4.65,-4.5 -20.59,-9 -26.76,-13.9 -28.47,-22.7 -34.4,-55.3 -35.99,-88.5 -1.61,-33.9 0.25,-68.8 0.48,-102.8 0.35,-50.8 -12.65,-76.4 -21.64,-123.5 -4.83,-25.3 19.4,-86 -18.52,-95.6 -13,-3.4 -64.15,31.9 -82.74,34.3 -53.82,7 -51.54,-2.8 -77.68,-42.1 -17.13,-25.8 -44.23,-41.2 -62.31,-65.8 -35.17,-47.7 -38.13,-132.1 0.07,-181.5 20.34,-26.3 57.38,-35.4 78.71,-59.7 22.82,-26 36.04,-71.8 40.56,-103.5 5.08,-35.6 -10.64,-60.4 -16.47,-87.3 -6.97,-32.2 -4.15,-64.7 -4.5,-98.3 -0.92,-85 52.5,-79.9 113.09,-123.5 53.35,-38.3 109.78,-51.6 174.88,-62.8 35.53,-6 56.2,5.7 87.35,-13.4 45.7,-27.9 39.65,-51.4 56.09,-89 14.72,-33.6 37.81,-48.2 1.98,-83.2 -28.67,-28 -67.82,-19.3 -104.27,-19 -33.8,0.2 -65.88,1.3 -98.23,-4.5 -21.04,-3.9 -11.53,-22.9 -41.22,-12.4 -10.02,3.5 -26.52,28.8 -30.79,36.4 -14.67,25.9 -11.07,62.1 -39.68,79.2 -16.48,9.8 -31.73,-0.9 -47.83,3.6 -11.97,3.3 -25.97,14 -34.87,16.5 -87.64,25.3 -103.85,-37.7 -139.52,-98.2 -42.9,-72.8 -141.07,-83.4 -193.83,-10.5 -23.5,32.4 -42.9,76.1 -58.64,113.2 -7.25,17.1 -9.69,41.7 -18.99,57.3 -10.18,17 -31.73,24 -43.21,45.2 -14.81,27.3 0.13,103.1 -17.57,120.8 -19.87,20 -96.46,-4 -121.4,2.1 -33.09,8 -55.86,40.9 -97.71,17.5 -31.6,-17.7 -37.9,-54.3 -82.3,-55.5 -54.36,82.1 4.46,198.2 36.54,280.8 25.13,64.6 98.27,173.1 58.07,247.9 -23.89,44.4 -103.5,73.4 -148.42,64 -16.83,-3.5 -60.81,-46.6 -73.72,-6.8 -10.27,31.7 38.23,44.5 17.38,89 -19.21,-3 -57.75,-10.8 -74.06,-22.2 -9.86,-6.9 -19.61,-27.9 -29.07,-37.2 -20.73,-20.2 -49.13,-27.7 -67.82,-51.8 -14.17,-18.2 -34.15,-52.3 -42.67,-73.7 -10.08,-25.4 -1.84,-63.1 -21.93,-81.5 88.23,19 46.19,-138 35.51,-172.3 -10.95,-35.1 -19.25,-72.4 -35.35,-104.6 -9.4,-18.8 -21.7,-32.6 -29.96,-51.9 -7.59,-17.8 9.1,-32 -15.59,-46.2 -0.68,-8.2 2.15,-15.1 8.49,-20.6 -23.12,-26.2 -65.29,-9.6 -95.77,-29.5 -28.91,-18.8 -51.05,-47.2 -81.79,-67.7 -47.83,-32 -119.26,-72.9 -149.04,-122.6 -13.6,-22.7 -28.5,-78.8 -11.9,-105.3 27.9,-44.5 80.98,-7.9 116.17,-2.7 105.66,15.7 -22.54,-115.2 -42.55,-160.4 -23.49,-53.1 -34.3,-137.1 25.08,-170.3 29.26,-16.3 76.83,-6.2 59.09,-51.6 -3.66,-9.3 -17.92,-11.1 -22.52,-19.4 -12.53,-22.6 -13.96,-28.7 -15.13,-56.9 -1.27,-30.4 1.03,-58.8 -4.3,-88.1 -3.8,-20.9 -23.51,-11.7 -12.38,-41.2 2.32,-6.2 17.96,-15.5 21.53,-19.5 29.61,-33.5 43.13,-42.7 57.59,-88.5 10.45,-33.1 2.29,-60.2 50.18,-60.4 33.27,-0.1 59.85,45.5 94.39,42.3 24.4,-2.2 53,-39.2 66.3,-58 15.84,-22.5 28.87,-70.6 55.09,-84.3 35.39,-18.5 100.8,-1.7 134.73,6.8 61.25,15.4 130.84,-1.8 170.31,-56.2 13.09,-18 25.99,-56.2 26.1,-77.7 0.27,-47.8 -19.83,-39.2 -50.06,-64.1 -23.64,-19.4 -34.3,-25.6 -34.14,-59.4 0.19,-40.4 17.32,-39 37.52,-66.3 19.14,-25.9 18.14,-48.3 45.87,-73 41.64,-37.2 89.18,-25.4 143.92,-25.2 45.61,0.1 100.47,9.7 144.46,-4.2 49.66,-15.7 73.96,-36.6 128.62,-37.5 34.53,-0.6 83.29,15.3 98.69,-18.6 7.26,-16 4.07,-110.1 -0.47,-125.9 -12.54,-43.7 -44.66,-30.6 -78.24,-44.2 -31.48,-12.7 -90.44,-65.8 -129.49,-60.2 -35.86,5.1 -41.1,69.3 -60.8,93.5 -37.32,45.9 -52.72,27.4 -103.54,16.3 -61.46,-13.4 -119.38,-15.2 -180.26,-40.4 -11.71,-4.9 -35.66,-20.6 -46.28,-22.1 -31.47,-4.5 -24.18,7.8 -44.3,12.3 -48.5,11 -253.29,-57.3 -142.37,-102.8 -0.48,-27.8 -21.29,-49.3 -36.21,-70.2 -21.74,-30.3 -20.38,-35.4 -68.86,-23.9 -86.99,20.6 -138.51,93.6 -237.53,79 -29.48,-4.4 -56.7,-14.9 -72.89,-41 -28.88,-46.6 4.1,-45.1 27.63,-74.9 51.65,-65.3 52.78,-145 141.95,-177.7 -13.14,-46.4 -38.21,-118.8 -100.94,-121.8 -74.08,-3.6 -113.11,102.7 -165.07,133.5 -83.06,49.2 -209.14,-28.3 -243.16,-110 -38.96,-93.6 71.46,-56.1 105.52,-96.7 52.22,-62.2 -79.88,-127.1 -125.73,-151.6 -43.22,-23.1 -93.05,-7.4 -127.95,-43.9 -45.9,-47.9 -4.88,-75.6 15.88,-123.3 19.51,-44.7 50.6,-92.3 62.17,-139.6 8.76,-35.7 24.59,-130.1 -14.46,-145.9 -32.35,-13.1 -53.14,5.8 -89.26,-17.6 -26.25,-17 -53.88,-40.3 -45.49,-74.2 16.16,-65.2 104.94,-30.2 52.45,-111.5 -31.63,-48.9 -97.23,-94 -34.74,-145 61.44,-50.1 160.16,-50.3 224.42,-102.8 33.1,-27.1 18.66,-32.7 34.59,-62.3 8.12,-15 9.56,-25.5 24.94,-36.4 69.84,-49.5 243.68,25.3 270.07,97 38.35,-11.1 28.4,-56.6 59.52,-76.5 20.98,-13.3 54.05,-1.5 78.13,-8.3 21.43,-6.1 44.83,-21.8 62.13,-36 50.47,-41.4 21.12,-113.2 84.45,-126.9 44.43,-9.6 91.73,29.6 131.58,39.5 31.62,7.9 62.44,-2.6 93.39,4.9 46.91,11.3 20.67,33.9 43.38,56.8 16.71,16.9 45.07,24.5 67.64,26.2 62.48,4.7 123.21,-40.3 186.1,-42.8 57.61,-2.3 120.44,-12.9 164.57,28.4 31.53,29.4 70.52,93.4 85.4,132.8 17.92,47.5 -14.26,60.2 -11.31,102.8 35.57,21.3 79.63,46 121.4,45.7 45.26,-0.3 76.2,-30.7 114.92,-40.2 148.62,-36.5 198.1,232.7 71.9,290.6 -13.14,67 152.11,119.2 161.67,198.3 7.18,59.4 -32.5,43 -62.57,83.8 -28.78,39 -2.69,73.6 -19.4,111.9 -9.38,21.6 -40.3,30.3 -56.27,52.6 -24.14,33.7 -17.52,60.6 -56.51,83.1 -11.44,6.6 -36.02,19.3 -48.74,22.5 -29.22,7.5 -76.92,-19 -97.86,13.5 28.98,25.3 3.52,56.8 -2.16,86.8 -8.45,44.6 -15.43,89.7 -23.69,134.2 -14.96,80.8 42.6,188.9 140.04,174.2 1.44,-22.1 7.08,-63.3 26.87,-77.5 18.72,-13.4 40.59,6.1 59.16,-1.6 28.2,-11.6 37.73,-81.9 54.4,-110 7.54,-12.7 18.97,-20.7 26.29,-34.5 14.36,-27.1 15.16,-61.6 39.68,-84.7 84.8,-80.1 118.64,75.4 184.01,62.3 15.21,-45.4 -8.87,-97 6.32,-143.1 28.15,14.4 50.06,46 79.12,63.2 16.12,9.5 44.13,12.5 56.56,22.1 14.91,11.5 41.26,66.1 43.75,79.2 9.4,49.7 -45.05,62.2 -37.46,100.1 28.31,8.4 67.27,-9.3 95.52,-17.4 34.53,-10 61.33,-10.4 84.83,-41.2 31.52,-41.3 24.69,-96 23.83,-144.3 -0.33,-14.1 -0.73,-28.2 -1.21,-42.3 1.71,-11.6 7.94,-19.6 18.67,-24.2 -1.66,-27.7 -26.38,-36.5 -35.07,-61.6 -13.29,-38.6 1.75,-57.5 22.06,-75.2 -2.01,-1.3 -4.15,-2.4 -6.14,-3.7 -57.46,-38.9 -83.97,-83.8 -120.62,-136.6 -24.8,-35.8 -85.2,-91.3 -81.87,-138.7 3.01,-42.7 62.68,-55.7 77.96,-93.8 34.88,-87 -102.22,-43.2 -130.18,-85 -32.67,-48.8 -3.51,-80.4 5.92,-125 12.82,-60.7 -10.95,-129.7 -15.16,-190.4 -3.51,-50.6 -7.65,-102.2 -3.34,-152.9 73.32,-10.5 155.45,60.2 225.46,37.7 3.14,-32.6 2.28,-69.6 20.86,-98.4 21.53,-33.3 55.44,-40.1 81.53,-68.5 73.96,-80.4 -39.09,-113.1 -81.05,-162.2 -29.98,-35.1 -86.1,-56.1 -30.07,-103.3 46.64,-39.3 112.32,-11.8 171.13,-22.2 10.34,-30.1 -36.21,-53.9 -6.67,-79.1 23.58,-20.2 136.91,30.3 155.47,44.9 21.7,17 39.2,49.7 67,58.8 41.83,13.8 114.71,-21.6 149.92,-38.7 53.61,-26.1 97.44,-69.1 143.67,-105.5 21.46,-16.9 57.83,-35 67.32,-62.4 -32.7,-49.6 -165.39,-81.3 -159.99,-144.3 3.32,-38.9 73.27,-51.1 98.85,-61.9 34.34,-14.4 44.93,-34.6 72.92,-55.4 32.2,16.5 68.96,53.9 107.2,41.4 47.92,-15.7 50.41,-99.4 50.71,-137 0.23,-29.2 20.86,-125 7.09,-140.7 24.25,-39.9 42.86,-71 87.88,-84.1 74.05,-21.4 141.53,57.1 212.73,70.1 41.72,-42 14.35,-109.5 20.38,-161.9 73.42,-41.4 198.71,33.7 248.04,77.3 100.72,89 110.87,223.3 21.13,324.8 -50.56,-18.2 -78.28,-49.5 -121.74,-80.4 -41.03,7.2 -53.38,80 -84.2,103.3 -28.47,21.6 -86.76,33.1 -121.94,38.5 -38.54,6 -40.29,-3.8 -65.69,35.5 -25.11,39 -5.41,98.6 -36.64,135.9 28,8.8 122.75,66.9 146.04,53.9 32.34,-18 4.51,-32 35.14,-53.6 61.08,-43.1 199.95,7.3 152.52,90.2 -19.81,34.6 -32.68,43.4 2.8,71.2 29.09,22.7 77.97,20.2 113.07,16.1 48,-5.6 81.63,-12.6 120.01,26.4 38.52,39.1 53.22,113.1 39.58,164.4 -28.55,107.3 -138.42,157.5 -234.17,188.1 -17.63,5.7 -27.86,14.7 -46.92,14.7 -39.01,0.1 -80.94,-56.5 -129.09,-38.8 -54.98,20.3 -59.25,116.2 -78.86,164.9 -28.67,71.4 -93.97,33.9 -157.39,19.3 31.44,82.4 -67.06,198.6 -153.03,155.3 26.84,35.7 49.61,72.9 67.62,113.9 66.51,-19.2 136.9,-29.5 203.16,3 -2.1,78.2 -134.41,91.5 -104.87,179.4 59.33,13.9 147.3,-23.9 200.96,5.1 49.2,26.7 32.7,76.7 109.37,77.5 65.41,0.8 100.64,-32.2 133.13,-82.9 48.72,-76.1 105.84,-145.5 172.95,-206.7 47.52,25.6 88.95,88.9 150.9,67.9 72.11,-24.3 70.83,-109.3 159.59,-112.8 19.62,4 39.24,8.1 58.87,12.2 30.09,18.6 51.22,44.4 63.37,77.4 35.4,26.4 72.69,-12.9 100.34,-33.7 37.27,42 95.77,-39.2 103.93,-69.1 15.7,-57.7 13.79,-170.8 -14.23,-224.8 45.81,-9.5 109.71,-21.5 131.28,-70.7 24.55,-55.9 -35.11,-101.8 -17.5,-155.9 122.25,-3.6 262.4,77.4 187.2,215.8 -48.62,35.5 -75.39,82.4 -80.38,140.8 4.38,20.9 8.76,41.9 13.14,62.8 28.25,73.3 72.54,67.6 149.24,58.8 28.6,-3.3 92.3,-30 118.2,-26.3 66.5,9.4 72.3,97.3 127.3,120.1 75.2,31.1 77.3,-62.2 76.2,-101 -11.6,-18.2 -12.5,-37.6 -2.8,-58.2 40.8,-25.6 85.3,-40.5 133.6,-44.8 76,-4.6 138.5,45.7 91.3,122.7 69.9,34.6 162.3,35.9 223.7,-13.2 33.8,-26.9 74,-67.2 47.1,-112.3 21.3,36.2 71,33.3 96.4,3.8 37.6,-43.7 14.8,-142.6 -4.5,-184.6 -22,-47.4 -46.8,-47.6 -83.5,-75.9 -112.7,-87 112.4,-234.6 197.8,-221.2 38.9,-13.4 64.9,4.5 78.2,53.6 10.6,30.5 21.2,61 31.9,91.5 0.8,19.8 1.6,39.7 2.4,59.5 -18.6,9.1 -28,23.5 -28.1,43.1 57.5,30.4 118.1,56.3 157,108.8 27.3,36.8 25.5,70.4 71.9,86.3 79.7,27.5 199.9,-25.8 236.1,87.6 24.2,76 -3.4,166.2 -58.5,221.2 -40.9,4.4 -62.4,23 -64.6,55.8 -10.4,30.4 -4.9,60.3 16.6,89.5 10.1,42.9 -0.6,89.2 8.5,129.5 13.9,60.7 53.9,49 112.7,78 73.7,36.2 149.8,77.4 165.1,163.9 11.8,66.6 -6.9,134.2 -75.1,164.4 -61.3,27.2 -140.4,0 -182,67.7 -44.8,72.8 16.5,152.9 -15.8,236.4 -26.1,67.7 -80.5,148.9 -164.2,113.5 -62.3,-26.5 -52.7,-97.4 -121.8,-124.1 -40.3,-15.5 -71.2,5.3 -113.2,7.5 -50.9,2.7 -63.1,-23.9 -105.6,-37.7 -24.9,25.7 -85.6,70 -124,46.3 -32.6,-20.1 -9.7,-72.8 -43,-95.5 -48.9,16 -82.6,64.5 -132.3,71.5 -24.2,19.9 -45.4,16.3 -63.6,-10.7 -35.7,-22.8 -65.7,-51.8 -90,-87.2 -18.4,-13.7 -50.8,-21.2 -65.8,-39.1 -32.5,-39 -24.5,-113.6 -46.1,-159.4 -93.8,22.2 -110.7,188.6 -205.2,206.4 -57.3,10.8 -80,-46.6 -137,-40.7 -37.2,24.5 -68.7,17.3 -94.3,-21.5 -24.6,-63.6 -46.2,-128.3 -64.7,-194 -37.84,-83.1 -106.68,-131.1 -124.14,-225.2 -7.83,-42.2 -43.61,-268.1 -132.2,-226.4 -49.34,23.2 -36.19,96.2 -37.56,138.3 -1.97,61.1 12.71,77.9 -47.22,91.4 -38.65,3.5 -77.07,8.8 -115.25,15.7 -20.92,-10.1 -41.76,-11.5 -62.53,-4.4 -4.9,73.4 -8.16,142.1 9.77,215 1.62,70 30.87,119 87.76,147 47.33,-30.5 96.52,-30.7 147.54,-0.6 128.78,74.6 9.17,164.2 92.47,239.9 73.4,66.8 110.36,4.6 167.56,-25 55.8,-22.8 109.4,-17.3 160.8,16.8 22.9,27.5 51.1,46.8 84.5,57.9 56.4,-10.1 113.3,-14.5 170.7,-13.1 53.9,4.2 100.9,23.8 141,58.8 75.4,28 151.1,-53.3 225.9,22 104.3,104.7 -22.1,256.7 -78.8,343.1 -49.7,75.9 -78.1,148.5 -100.6,234.7 -35.5,135.8 -195.8,128.1 -293.7,55.5 -47.4,-33.9 -78,-78.4 -91.8,-133.4 -3.7,-39.6 -27.3,-58.9 -70.8,-57.8 -57.2,4.1 -111.7,18.2 -163.49,42.4 -36.54,7.3 -62.87,-4.1 -78.98,-34.2 -58.8,-48.6 -41.32,-125.1 -131.05,-124.9 -94.44,0.2 -158.73,16.8 -177.57,116.9 -12.11,70.4 -4.02,138.1 24.28,203 46.47,25.1 92.05,21.8 136.75,-9.7 77.79,-14.8 158.44,48.8 147.33,134.9 -69.79,36.1 -152.39,28.3 -207.63,88 -46.03,49.7 -91.73,142.6 -161.32,138.1 -107.67,-6.9 -167.07,-149.5 -270.26,-162.4 -122.52,-15.2 -146,103.4 -138.11,198.1 13.18,5.7 26.36,11.4 39.54,17.1 24.26,-23.7 47.45,-26.9 69.54,-9.7 34.65,19.2 44.48,74.3 52.23,112.3 73.83,-2.3 130.08,26.1 195.49,53.6 99.63,42 131.36,1.1 234.1,17.3 96.26,15.3 130.15,103.7 122.31,194.5 -8.91,103.2 -66.14,86.7 -110.71,168 -42.07,76.7 -26.75,198.2 -138.54,213 -77.4,10.3 -169.55,-5.7 -247.71,-7.3 -34.79,-0.7 -40.2,1.1 -69.2,-20.1 -33.42,-32.4 -62.3,-68.7 -86.63,-109 -27.64,-72.3 -75.53,-122.1 -143.66,-149.5 -121.6,81.7 -146.1,-16 -228.67,-100.4 l -61.87,-52.1 c -49.42,-13.9 -94.8,-36 -136.15,-66.4 -44.64,-54.3 -11.44,-98.2 -6.48,-156.9 8.76,-103.7 -13.53,-234.8 -50.48,-331.1 -49.15,38 -89.57,69.3 -143.44,103.9 -51.49,33.1 -55.44,47.6 -99.15,5.6 -47.44,-45.5 -68.47,-144.6 -83.61,-208.8 -19.62,-83.2 3.35,-79.1 23.07,-148.4 12.45,-43.7 -1.06,-113.6 -39.36,-139.3 -43.79,-29.4 -51.24,3.7 -93.88,-0.4 -91.08,-8.8 -59.63,-118.7 -28.43,-166 44.05,-66.9 93.46,-98.5 74.03,-186.1 -106.88,-2.6 -168.7,130.6 -191.52,225.1 -13.38,55.5 -38.44,139.9 -35.28,195.6 -3.19,33.1 8.28,62.1 34.44,86.8 35.85,25 72.43,49 109.73,71.8 49.42,73.3 -31.75,153.5 -91.79,181.5 20.61,55.6 36.85,112.5 48.72,170.8 -16.3,40.5 -11.27,66.9 15.11,79.2 17.32,9.7 34.63,19.4 51.93,29.1 31.33,29.5 45.72,64.2 43.18,104.1 0.82,63.4 -52.74,92.3 -13.2,150.5 17.09,19.4 34.17,38.7 51.26,58 29.8,36.5 52.57,76.8 68.32,121 35.76,29.4 50.85,-2.3 101.4,33.6 55.35,39.3 56.2,143.4 130.74,153.4 69.36,9.3 130.22,-73.6 200.07,-70.8 134.11,5.3 135.27,223.8 163.64,315.3 47.05,-21.4 90.51,-48.7 130.37,-81.9 72.23,-11.6 128.76,15.6 169.59,81.5 76.58,61.2 101.95,138.1 76.1,230.6 -35.61,54.1 -75.12,105 -118.52,152.9 39.4,96.6 273.5,-29.2 343.75,48.2 40.48,44.5 46.18,109.7 14.34,158.2 -36.97,56.3 -98.01,41.5 -161.44,35.8 -46.55,136.5 -180.55,223.1 -284.44,315.7 -34.04,20.3 -56.05,49.7 -66.03,88 -30.39,33.9 -31.56,69.1 -3.53,105.6 5.17,46.3 29.88,78 74.12,95 40.72,42.6 91.53,61 152.43,55.2 59.54,-26.8 103.65,-97.8 142.2,-146.5 41.42,-52.4 82.32,-104.8 117.73,-161.5 19.78,-34.9 39.56,-69.9 59.34,-104.8 11.07,-60.4 41.58,-87.3 91.57,-80.6 35.63,-7.3 69.87,-1.9 102.71,16.2 53.82,20 109.63,30.6 167.44,31.6 33.64,-44.3 49.17,-94.9 46.57,-151.8 20.16,-41.1 42.78,-80.9 67.87,-119.2 -63.46,-69.5 -240.22,-112.1 -211.22,-235.7 26.34,-112.2 253.71,-98.8 204.34,-226.6 -38.78,-100.4 -175.46,-58.1 -210.23,-149.7 -38.57,-101.6 112.35,-150.1 149.11,-220.4 10.85,-61.8 37.32,-116.2 79.39,-163.2 65.2,-47.5 137.9,-75.6 218.2,-84 55.9,-8.5 103.1,-32.7 141.6,-72.7 44.2,-21.1 81,-8 110.5,39.4 103.8,110.6 44.3,229.1 -61,303 -48.5,20.4 -83.2,55.1 -104.2,103.9 -4.6,58.6 -32.8,90.8 -84.5,96.4 -35.1,-36.2 -74.5,-66.7 -118.2,-91.7 -38.7,4.5 -61,26.3 -66.9,65.6 2.7,53.5 86.3,52.2 120.2,75.9 57.3,40 36,57.9 19,107.5 -14.7,42.7 -27.3,63.3 44.5,67.5 61.2,3.5 151.9,-31.5 210.4,-54.1 65.2,-25.1 63.1,-53.4 76,-112.3 11.3,-52 12.4,-120.2 80.7,-132.6 101.2,-18.5 134.5,112.2 133.4,181.8 85,20.6 74.4,-35.3 99.1,-98.7 39.6,-101.7 143.7,-74.9 235.7,-102.6 13.5,-47.2 20.7,-95.3 21.7,-144.2 0.1,-43.4 6.9,-85.7 20.6,-127 -14.5,-29.5 -37.6,-15.3 -56.6,-40.1 4.1,-110.2 339.3,-106 337.7,21.2 64.4,-23.2 123.9,-49.6 190.9,-64.6 16.7,25.2 29.1,63.2 23.8,93 -15.1,83.9 -89,128.3 -83,218.2 45.4,7.1 124.2,-6.7 152.8,26.6 22.9,26.6 16.8,39.3 16.7,74.7 30,-27.3 65.5,-42 106.5,-44.1 32.7,24.2 48.1,56.7 46.1,97.5 37.8,6.7 58.1,-25 87.8,-42.6 47.7,-28.1 97.5,-33.7 140.9,-69.3 55,-45.1 70.8,-101.9 39.4,-165.1 -14.4,-31.7 -31,-62.3 -49.6,-91.7 -33.7,-34.5 -38.1,-74.2 -13.3,-119 104.4,-35.7 266,-36.8 309.4,-161.2 57.6,0.8 176.6,12.6 223.2,39.2 72,49.8 99.7,118.5 83,206.3 -23.9,34.9 -28.4,69.1 -13.6,102.6 66.9,1.2 105.4,3.4 142.2,56.8 26.1,37.8 38.6,126.3 10.3,168.1 -27.4,40.4 -92.5,57.2 -127.3,93.9 -18.2,12.5 -31.3,28.7 -39.2,48.9 -10.2,13.9 -15.4,29.5 -15.7,46.8 -21.3,21.9 -67.2,15 -93.6,19.6 -63.2,10.8 -126.5,36 -149,100.3 -19.3,55 11.6,115.5 78.4,112.3 61.9,-3 76.3,-79.4 135.8,-80.6 33.6,42.2 31.6,82.9 -5.9,122.2 -39,-10.9 -75.3,-6.6 -108.9,13 0.6,70.4 23.3,132.9 68.1,187.5 59.1,7.4 105,-15.3 137.6,-67.8 35,-25.2 71.1,-48.6 108.4,-70.2 126.6,-76.2 65.3,-217 47.4,-336 99.5,-63.8 205.6,-7.2 232,101.1 88.8,-22 143.4,-57.3 184.5,-149 16.1,-48 42.9,-89.5 80.5,-124.3 46.9,-0.8 93.6,-2.9 140.3,-6.3 7.4,-31.3 13.4,-84.3 34.9,-109 53.5,-34 109.3,-41.4 167.3,-22.1 49.5,-7.4 85.3,10.7 107.4,54.1 56.4,63.2 50.2,132.6 29.6,213 -16.6,64.9 -23.2,146.6 -50.6,207.4 -11.8,26.3 -68,73.2 -67.5,101.4 0.8,42.4 59.2,51 90.7,57.8 82.6,18 158.6,-0.1 240.9,6.5 28,2.3 98.4,30.2 120.4,13.9 -2.1,-81.2 -5,-128.3 51.4,-191.4 66,-73.9 151.6,-125.7 169.9,-229.5 -25.4,-17.8 -51.2,-35 -77.6,-51.4 1,-40.3 28.9,-20.9 28.8,-75.5 -8.5,-25.3 -16.9,-50.5 -25.4,-75.8 -7.2,-52.6 3.1,-101.2 31,-145.7 -121.9,-76.6 -368.5,-49 -336.2,-270.7 35.1,-45.9 37.1,-91.9 6.2,-138 -46.8,-42.5 -64.5,-92.4 -53.3,-149.7 -12.5,-70.7 23.5,-117 107.9,-138.7 95.9,-31.6 189.5,-27.8 281,11.5 52.1,19.3 73.5,53.8 64.3,103.5 -3.4,9.5 -7.7,16.1 -12.5,20.5 43.6,-12.4 95.9,-39.9 101.6,-86.5 8.7,-71.9 -57.2,-54.7 -59.9,-110.9 12.2,-18.3 24.3,-36.5 36.5,-54.7 59.1,-50.4 127.4,-77.2 205.1,-80.4 73.5,4.1 108.7,56 167.8,90 76.4,-99.7 89.2,-242.2 72.2,-365.8 70.3,-39.8 133,2.5 194.5,44.7 -5.5,41 -22.2,77.3 -50,108.9 -12.6,68.9 13.5,120.4 78.2,154.5 66.8,51.7 244.3,90.4 248.9,197.4 -38.8,6.5 -69.8,24.8 -93.2,55.1"
         style="fill:#788087;fill-opacity:1;fill-rule:nonzero;stroke:none"
         id="path16" />
      <path
         d="m 13888.3,15823.4 c 79,-35.5 136.1,2.5 180.5,72.5 18.9,29.7 21.5,60.2 29.7,93.3 8.7,34.8 31.7,68.2 37.1,106.9 4.1,28.8 5.3,67.1 -14.9,88.9 -21.1,22.7 -53.9,20.4 -73.4,50 -22,33.2 -14.5,67.7 -14.9,108.4 -0.5,39.6 20.1,65 16.3,97.8 -5,43.6 -72.3,92.5 -103.8,123.5 -51.5,50.6 -58.7,129.1 -112.8,174.8 -28.7,24.2 -46.7,35.1 -83.3,31.9 -25.8,-2.2 -58,-29.8 -81.2,-42.7 -30.3,-16.8 -42.8,-21.7 -73,-0.4 -15.8,11 -16.7,33.9 -34.5,43.7 -25.6,14.2 -45.7,-4.5 -68.8,18.1 -30.3,29.5 -11.9,90.2 -14.1,129.4 -0.9,16.7 -0.4,23.4 -5,41.2 -7,26.6 -8,58 -14.9,83.3 -9.9,35.7 -60,50.1 -88,56.1 -28,6 -92.5,15.4 -119.8,6.1 -33.2,-11.3 -52.2,-68.1 -65.8,-99.3 -14.9,-34.2 -9.3,-66.5 -20.2,-103.3 -8.6,-28.8 -38.3,-70.4 -56.5,-87.5 -10.9,-10.2 -27,-8.1 -37.6,-24.2 -8.7,-13.3 -6.6,-33.7 21.3,-20.1 -8.3,-13.5 -15.5,-26.9 -20.8,-37.4 -17.5,-34.5 -29.7,-57.1 -10.1,-88 12.4,-19.6 39.2,-31.2 52.2,-50.5 26.7,-39.7 8.3,-82.7 14.5,-129.5 4.2,-31.5 13.5,-61 22.8,-92.1 11.2,-37.1 39.8,-46.6 55.9,-76.1 10,-18.4 2.7,-38.2 3.5,-57.7 1.2,-26.6 10.7,-37.3 16.7,-61.6 10.3,-41.9 2.6,-64.3 44.6,-88 38.3,-21.7 67.6,-21.2 99.2,-56.1 31.2,-34.4 22.8,-58.8 24.8,-102.9 2.9,-65.5 64.2,-143 128.6,-159.8 80.3,-21 98.4,45.4 154.3,83.1 67.4,45.4 146.7,-2.7 211.4,-31.8"
         style="fill:#788087;fill-opacity:1;fill-rule:nonzero;stroke:none"
         id="path18" />
      <path
         d="m 11892.5,16302.3 c 5.6,-4.5 9.7,-10.3 13.2,-16.5 z m 612.7,308.6 c -9.5,36.8 -39.2,83.3 -40.1,120 -62.1,13.4 -87.9,21.3 -127.9,76 -24,32.9 -62,71.6 -102.6,70.5 -35.3,-1 -78.3,-54 -114.6,-61.9 -29.3,-6.3 -43.2,6.9 -68.5,-13.4 -22.2,-17.9 -24.9,-49.8 -45.6,-68.7 -77.9,-71.2 -146.4,130.9 -210.6,171.1 -42.1,26.4 -95.9,10 -145,19.5 -24.9,4.9 -32.5,28.9 -57.1,-3.6 -18,-23.8 -4.2,-53.5 -13.4,-81 -19.7,2.9 -26.5,33.8 -42.1,35.9 -13.6,1.8 -38.7,-25.9 -46.9,-37.5 -12.1,-17.3 -16.5,-35 -30.1,-52.2 -13.2,-16.7 -34.9,-28.3 -47,-45.7 -26.9,-38.8 -22.9,-103.3 5.4,-139.5 35.1,-44.8 55,-65.5 36.8,-128.9 -6.7,-23.2 -27.2,-30.8 -11.8,-62.3 5.2,-10.7 31,-32.6 41,-40.1 35.5,-26.7 87,-59.1 128.9,-67.6 52.1,-10.6 121.7,0.1 175.6,0.7 49.1,0.6 93.1,-22.8 132,-54 2,-4.6 3.9,-9.3 6.4,-13.3 8.7,-13.7 27.3,-31.5 38.9,-43.4 31.6,-32.9 63.4,-48.2 90.1,-0.3 29.3,-20.6 33.3,-88.7 56.2,-120.9 33.5,-46.9 95.2,-49.7 146.2,-59.5 -5.3,-63.8 51.2,-32.6 70.8,-2.1 12.2,19 8.7,23.9 15,46.7 2.3,8.5 14.5,39.2 16,45.7 9.3,42.5 -3.6,73.9 24.9,108.8 24.1,29.3 56.5,28.9 83,50.8 79,65.1 3.1,139.3 19,226.8 8.5,46.4 29.8,74.1 17.1,123.4"
         style="fill:#788087;fill-opacity:1;fill-rule:nonzero;stroke:none"
         id="path20" />
      <path
         d="m 5838.99,15577.5 c 30.39,-7.5 64.21,-34.2 91.45,-51.9 40.49,-26.4 88.54,-33.4 99.76,-87 9.49,-45.4 -13.01,-97.6 2.71,-142.3 23.32,12.3 42.21,22.4 62.68,38.4 24.49,19.2 34.77,37.9 66.31,42.7 69.83,10.5 131.37,-80.8 175.31,-124.3 41.06,-40.7 80.47,-130.8 143.62,-119.9 62.24,10.8 83.39,79.5 98.37,124.4 12.65,37.9 54.19,119.3 6.52,140.9 -47.93,21.7 -84.75,-22 -125.08,29.2 -30.37,38.6 -25.96,101.3 -15.84,149.9 3.06,14.7 11.46,37.2 15.24,56 7.31,36.5 14.92,39.7 41.95,64.2 14.73,13.4 38.41,52.2 61.69,51.5 18.4,-0.5 36.9,-33.4 48.91,-44.3 16.51,-14.9 37.12,-24.9 53.96,-39.5 29.29,-25.4 32.66,-58.7 56.01,-84.7 32.76,-36.6 69.56,2.4 108.59,22 38.73,19.4 98.05,39.2 119.93,81.8 30.56,59.5 22.02,124.9 4.1,185.6 -17.92,60.6 -23.71,110.1 -21.33,175.3 2.55,69.7 51.61,82.5 108.1,56.1 41.8,-19.5 80.52,-28.3 119.16,6.5 27.05,24.3 23.11,46.3 60.48,65.6 23.87,12.3 50.57,21.8 73.26,36 43.43,27.2 77.18,40.5 132.41,31.9 64.25,-10.1 96.7,-54.6 165.08,-37.5 45.92,11.5 72.71,34.4 102.88,69.3 34.57,-31 43.81,-109.6 101.88,-111.5 33.41,-1 67.88,36.6 103.45,34.4 41.71,-2.6 90.05,-49.7 128.99,-64.7 94.92,-36.6 158.5,10.9 241.83,52.3 34.54,17.2 73.21,31.2 103.28,55.7 47.1,38.3 27.63,56.4 39.68,104.9 5.6,22.5 31.07,47.7 42.42,69 10.86,20.4 12.67,52.2 24.47,69.9 28.88,43.2 92.9,33.3 125.47,81.2 34.17,50.3 34.73,87.6 35.03,149.2 0.32,65.1 -23.33,113.3 -36.64,169.1 -19.59,82.1 -28.44,65.1 -107.31,76.8 -55.32,8.2 -88.29,56.8 -67.98,104.5 15.71,36.9 37.49,35.1 0.87,77.6 -16.46,19.1 -38.76,36.8 -56.98,53.2 -22.86,20.5 -19.26,25.8 -50.34,33.7 -29.69,7.6 -45.61,3.8 -72.47,20.1 -68.02,41.2 -24.08,78.3 -20.17,144 3.62,60.5 -2.15,86.7 -61.14,103.4 -18.18,5.2 -86.59,28.9 -105.4,21.9 -31.24,-11.4 -19.81,-43.8 -19.1,-73.9 1.44,-61.7 -4.47,-130.3 -82.38,-108.5 -38.56,10.7 -60.58,16.8 -102.73,16 -27.01,-0.5 -47.63,-5.3 -67.84,14.4 -59.29,58 35.02,66.6 29.15,109.5 -4.2,30.7 -24.42,9.9 -38.62,23.5 -8.4,8.1 -19.68,26.9 -26.03,37.3 -16.27,26.6 -34.55,57.5 -18.55,91.4 21.66,45.8 89.17,17.3 98.14,68 -23.18,16.5 -41.64,54.5 -58.62,77.6 -19.32,26.3 -27.67,65.5 -45.79,88.4 -24.36,30.8 -44.13,12.9 -73.63,28.8 -10.1,5.4 -14.57,20.7 -24.03,27.4 -11,7.8 -26.66,6.8 -37.14,14.3 -18.12,12.9 -36.07,52.7 -58.34,56.3 -29.41,4.8 -42.96,-26.9 -80.51,-20.7 -78.97,13 -20.37,113.5 -86.48,120.8 -26.28,-47 -138.98,-2.8 -170.4,12.9 -30.71,15.3 -35.54,51.7 -69.25,51.8 -22.59,0 -61.67,-50.7 -83.07,-61.8 -42.72,-22.2 -35.11,-26.9 -58.25,16.2 -16.74,31.2 -15.92,45.5 -51.62,42 -16.79,-1.7 -48.73,-29.4 -61.54,-42.2 -14.11,-14.1 -19.56,-31.5 -26.79,-47.8 -12.04,-6.7 -26.78,-18.5 -40.94,-37 -30.45,-39.8 -40.82,-75.9 -40.34,-126 0.25,-26.1 3.94,-56.5 0.86,-82.4 -5.84,-49.3 -18.78,-44.7 -62.45,-53.8 -66.6,-14 -154.29,-63.6 -145.59,-140 4.91,-43 30.82,-83.3 48.73,-121.9 4.57,-9.9 12.41,-36.1 18.45,-44.7 37.8,-54 90.81,-22.4 119.32,-83.9 9.62,-20.7 66.64,-114 60.63,-141.8 -5.67,-26.2 -70.22,-73.9 -89.87,-91.7 -52.42,-47.5 -63.2,-51.1 -42.9,-124.7 12.12,-44 27.37,-92.1 45.99,-133.5 21.06,-46.8 46.71,-89.7 6.05,-123.9 -36.26,-30.5 -101.4,-21.1 -122.99,-70.8 -18.44,-42.5 17.48,-105.5 29.27,-145.8 14.11,-48.2 26.35,-86.7 62.22,-123.4 20.5,-21 57.49,-43.4 69.06,-71 29.72,-70.8 -32.8,-46.6 -64.65,-76.2 -19.24,-17.9 -7.34,-39.9 -34.05,-49.3 -22.11,-7.8 -34.27,12.1 -51.77,17.5 -7.78,2.4 -58.64,24.9 -65.35,24.8 -31.79,-0.5 -21.34,-10.9 -32.87,-35.3 -20.97,-44.5 -31.59,-97.9 -68.83,-139.7 -33.45,-37.5 -100.71,-49.1 -123.36,10.3 -16.6,43.6 42.26,108.5 -2.54,151 -20.98,20 -95.97,33.6 -126.45,38.8 -6.86,58.7 -16.65,114.7 -85,137.7 -53.59,18.1 -131.31,12.2 -165.81,-33.5 -62.08,-82.3 -55.61,-193.6 -163.72,-244.3 -30.8,-14.5 -95.27,-70.9 -122.42,-37.6 -19.15,23.4 11.46,65.8 -40.71,68.4 -40.24,2.1 -211.64,-136.8 -169.51,-176.9 -26.04,-16.3 -35.87,-130.9 -38.48,-160.8 -3.52,-40.6 -7.05,-110.1 20.45,-142.3 32.74,-38.3 91.57,-39.3 135.2,-52 51.72,-15 91.45,-57.8 143.66,-73.3 49.07,-14.7 78.73,19 128.96,6.7"
         style="fill:#788087;fill-opacity:1;fill-rule:nonzero;stroke:none"
         id="path22" />
      <path
         d="m 6636.42,13483.6 c 31.61,75.3 -18.39,99.2 -32.66,163.5 -7.06,31.8 10.15,57.3 -10.81,81.8 -15.88,18.5 -52.89,12.6 -70.93,21.6 -76.05,37.9 -6.96,124.6 -73.06,174.6 -69.07,52.2 -104.92,-78.7 -148.17,11.3 -20.68,43 -17.42,41 -66.86,66.6 -23.87,12.4 -56.86,26.8 -62.64,56.1 -5.99,30.4 23.1,56.7 37.05,81.8 25.47,46 42.79,71.4 88.93,99.2 41.88,25.2 89.67,52.5 122.86,91.1 31.29,36.4 39.29,158.1 -9.82,180.3 -26.46,11.9 -65.29,-3.9 -93.93,0.4 -55.69,8.3 -40,29.9 -40.67,82.7 -0.58,45.4 3.07,50.8 30.61,82.5 5.63,6.4 29.31,33.5 35.54,37.4 14.1,9 25.4,-2.8 37.23,2.9 26.08,12.5 45.78,33.9 77.68,17 27.34,-14.6 34.33,-56.7 65.76,-68.9 36.42,-14.2 39.08,-3.7 56.01,30.5 20.24,40.9 47.03,79.1 47.67,124.9 1.72,123.8 -141.69,117.3 -233.25,104 -49.49,-7.3 -79.49,-38.7 -122.97,-7.1 -31.08,22.5 -32.52,61 -76.73,69.2 -49.01,9.1 -59.63,-9.9 -97.64,24.3 -21.23,19 -37.83,43.1 -66.41,52.4 -45.58,14.9 -77.64,9.1 -123.92,30.3 -33.11,15.2 -70.96,18.9 -102.88,25.4 -16.75,3.5 -14.72,7.8 -27.53,7.4 -19.82,-4.8 -42.66,-13.5 -54.29,-17.2 -32.32,-10.4 -60.81,-15.1 -93.06,-23 -51.6,-12.6 -118.36,-51.3 -154.27,-90.6 -20.35,-22.3 -35.44,-46.8 -51.44,-72.2 -10.18,-16.2 -25.29,-71.9 -34.48,-79.1 -59.46,-46.8 -105.37,77.2 -161.18,7.2 -24.98,-31.3 -51.13,-101.3 -41.72,-145 3.11,-14.4 15.02,-54 25.96,-66.5 21.22,-24.3 58.92,-19.4 74.68,-44.2 16.13,-25.4 -2.69,-49.4 22.81,-74.3 11.72,-11.5 45.31,-22.9 61.39,-30.2 47.48,-21.3 57.86,-17.7 103.87,-4.5 35.44,10.1 48.3,-1.8 77.2,-13 15.39,18.4 48.58,51.7 72.02,54.5 30.89,3.6 65.19,-17.6 97.74,-31.3 62.91,-26.6 158.76,-68.8 126.35,-141.9 -17.18,-38.7 -37.33,-47.7 -80.55,-44.9 -18.01,1.1 -15.15,14.3 -40.74,12.3 9.31,0.8 -54.46,-25.7 -45.65,-20.4 -20.62,-12.3 -36.95,-31.1 -57.63,-43.3 -7.64,-4.5 -39.54,-14.3 -42.14,-18 -31.27,-43.6 24.6,-68.8 35.92,-95.1 -29.83,-8.7 -60.38,-2.5 -91.22,-3.9 -34.1,-1.7 -41.1,-12.9 -70.67,-21.5 -32.19,-9.3 -61.15,8 -59.75,-40.1 0.94,-32.2 28.9,-53.2 15.88,-91.2 -15.78,-46.1 -78.71,-99.4 11.11,-115.7 27.46,-5 65.19,17.2 75.23,-18.3 6.09,-21.5 -28.62,-61 -42.84,-73.7 -36.61,-32.6 -96.42,-64.7 -144.79,-72.9 -60.96,-10.3 -110.38,14.4 -164.53,-19.6 -43.33,-27.1 -70.1,-59.2 -80.74,-113.1 -9.68,-49 9.83,-57.1 40.18,-88 25.49,-25.9 45.42,-53.7 79.6,-71.8 -12.06,-52.7 -106.47,-46.4 -132.62,-96.8 -40.02,-77 98.14,-82.8 144.95,-82.8 84.69,0 123.81,25.2 194.4,67.3 58.08,34.6 144.36,-12.7 182.2,60.2 25.42,48.9 20.05,178.8 106.98,156.7 47.96,-12.1 73.38,-53.7 103.57,-87.2 32.08,-35.7 39.65,-21 81.53,-35.9 43.05,-15.4 54.82,-52.5 102.4,-58.7 40.62,-5.3 66.76,7.5 103.27,16.5 36.59,9.1 70.54,0.4 83.37,44.7 7.12,24.6 5.98,87.6 -13.4,105.8 19.48,1.6 52.18,-18.4 73.65,-22.5 33.95,-6.6 68.47,-19.2 103.35,-21.1 77.43,-4.2 118.53,-0.7 185.17,-40.6 67.48,-40.4 104.86,-8.9 134.47,61.7"
         style="fill:#788087;fill-opacity:1;fill-rule:nonzero;stroke:none"
         id="path24" />
      <path
         d="m 4665.5,11260.9 c 5.28,10 22.57,31.9 22.85,42.8 0.47,18.9 -22.48,23.3 -20.14,40 4.76,34.2 60.94,40.7 85.89,56.7 76.33,49.2 7.04,93.3 20.65,161.5 -23.28,-24.7 -32.71,20.4 -52.27,29.7 -35.02,16.8 -32.09,-9.6 -63.96,-20.2 -33.52,-11.1 -75.42,17.4 -86.75,47.6 -2.83,-2.5 -5.67,-4.5 -8.41,-5.1 -26.85,-5.7 -25.48,22.4 -41.22,34.6 -27.81,21.6 -78.83,11.3 -104.27,38.9 -49.32,53.6 1.93,182.7 -18.63,250.9 -41.86,-4.1 -45.58,-63.3 -99.91,-14.2 -22.23,20.1 -40.86,51.1 -61.11,73.5 -14.54,16.1 -22.37,26.2 -35.47,46.3 -32.68,50 -63.92,28.9 -107.96,60.2 -40.31,28.6 -71.55,68.3 -108.59,100.7 -41.21,-5.6 -52.07,-87.7 -80.83,-115 -75.31,-71.6 -77.96,68.9 -150.67,24.7 -18.59,-11.3 -44.23,-46.6 -56.54,-65.4 -12.77,-19.6 -17.55,-49.5 -39.68,-63.2 -44.1,-27.4 -122.92,36.9 -156.4,62.5 -27,20.7 -87.8,74.4 -87.8,108.1 0,62.1 76.02,56.7 100.17,96.8 15.96,26.4 -12.26,72.5 7.29,95.6 6.31,7.5 76.3,19.3 89.47,21.9 84.35,16.8 99.73,-7.9 117.19,-78.5 23.48,4.1 103,80.5 115.25,104.8 33.6,66.8 -67.42,69 -98.83,109 -26.49,33.7 -22.03,35.8 5.29,67 15.05,17.2 33.68,41 55.57,47.4 18.62,5.4 42.39,-1.8 62.64,3.4 19.11,5 27.6,20.4 49.96,15.3 22.85,-5.2 31.9,-45.8 52.99,-52.1 36.06,-10.8 29.06,25 45.73,48.3 13.57,19.1 36.39,33.3 51.98,50.9 19,21.6 46.86,53 14.59,76.4 -12.88,9.3 -36.05,-1.5 -51.13,0.2 -31.51,3.7 -21.06,5.8 -45.65,16.1 -27.26,11.4 -47.61,13.7 -57.59,45.1 -12.3,38.7 14.53,52.1 22.49,82.3 17.68,67.3 -62.13,124.4 -122.4,128.6 -0.1,37 52.41,47.3 70.67,77.5 27.65,45.6 -12.56,56.9 -14.98,99.6 -11.11,3 -22.32,5.5 -33.64,7.5 -15.05,53.2 -14.69,151.2 34.52,187.2 -7.96,47.3 -86.14,49.8 -120.81,60.3 -71.79,21.7 -25.93,72.9 -19.69,118.8 6.21,45.8 1.38,47.5 -30.5,64.8 -34.07,18.4 -33.78,19 -54.7,46.6 -12.86,17 -31.46,32.3 -39.18,52.8 -10.65,28.2 -5.37,52.6 -25.29,81.2 -82.11,-38.5 -89.45,1.4 -117.97,75 -16.6,42.8 -15.96,30.5 -54.24,11.8 -25.79,-12.6 -45.19,-25.8 -69.45,-43.6 55.38,39.6 5.97,18.7 -40.09,0 -26.41,-10.7 -69.59,-13.8 -89.4,-35.1 -23.49,-25.2 -7.5,-48.7 -13.73,-78.9 -6.17,-29.9 -15,-49.3 -20.84,-81.3 -6.38,-34.9 -25.66,-59.6 -37.18,-92.8 -19.32,-55.6 -19.64,-52.7 -66.3,-81.2 -35.46,-21.6 -57.78,-57.3 -90.73,-84.4 -26.83,-22 -47.48,-28.6 -54.84,-64.7 -4.46,-21.9 7.76,-45.5 0.09,-67 -4.55,-12.8 -18.12,-18.4 -24.69,-30.8 -15.27,-28.8 -21.8,-61.6 -13.31,-93.8 11.1,-42.1 40.65,-49.4 60.83,-82.9 21.5,-35.7 29.06,-95.7 15.6,-134.4 -20.24,-58.2 -41.5,-19.7 -79.6,-42.8 -31.31,-18.9 -23.5,-63.9 -7.85,-89.3 27.54,-44.7 76.77,-77.4 109.09,-118.2 43.28,-54.7 26.43,-140.6 -1.4,-201.4 -15.69,-4.8 -29.15,0 -38.18,13.4 12.02,-53 -46.3,-169.3 -102.73,-102.9 4.22,-54.1 2.44,-69.9 -39.28,-105.5 -35.97,-30.6 -102.26,-51.9 -120.67,-96.7 -21.41,-52 12.58,-93.7 32.73,-137.9 31.19,-68.4 12.11,-112.4 4.4,-178.3 -10.26,-87.6 9.95,-113 -51.16,-184.5 -34.64,-40.5 -56.79,-81.3 -52.82,-137.6 3.06,-43.3 21.26,-69.7 43.16,-104.4 7.48,-11.8 33.99,-68.2 45.11,-78.5 38.82,-35.8 73.18,0.4 99.29,36.6 -1.13,-77.6 39.49,-138.2 102.98,-179.7 45.93,-30 79.59,-31.7 97.74,25.7 15.2,48 10.64,127.2 69.83,142.2 46.59,11.8 92.08,-25.2 140.5,-22.8 97.35,4.8 107.04,143.8 154.11,216.2 44.82,68.9 49.31,34.9 103.11,-16.2 40.1,-38.1 117.79,-59.2 138.68,-115.7 32.67,-6.6 41.53,30.8 56.78,49.6 19.12,23.6 44.56,45 63.3,67.5 19.01,22.9 25.06,57.3 59.12,67.4 34.84,10.4 87.46,-1.8 124.37,-1 59.21,1.1 77.92,-6.4 41.62,-62.2 -21.97,-33.9 -65.68,-57 -21.87,-92.9 42.13,-34.5 85.02,-15.6 84.07,-91.8 -0.58,-46.5 -12.53,-84.4 -62.53,-83.1 -55.07,1.5 -26.79,33.9 -65.97,58.4 -51.11,31.9 -102.26,-18.8 -133.73,-51 -49.74,-51 -130.01,-106.7 -169.13,-162.6 -10.47,-14.9 -18.73,-47.7 -27.8,-65.7 -8.65,-17.2 -22.01,-20.2 -16.95,-46.3 4.47,-23.1 26.88,-20.9 39.17,-39.5 7.75,-11.8 17.24,-50.4 19.99,-62.8 9.25,-41.4 4.5,-80.6 61.8,-57.6 35.1,14.1 70.81,65.6 119.2,34.9 51.54,-32.7 0.11,-123.3 59.25,-141.8 37.38,-11.8 96.27,41.7 131.16,55.4 15.73,-60.7 18.01,-94 75,-128.2 28.36,-17.1 72.4,-45.4 102.83,-51.7 28.7,-6.1 73.09,-1.4 91.6,12.8 3.73,2.8 12.28,27.8 16.42,35 4.2,7.3 18.59,19.9 23.96,27.5 18.52,26.1 29.54,51.1 11.26,78.2 -21.99,32.6 -50.06,18.4 -41.67,62.9 15.61,82.7 168.25,47.2 226.84,74.3 37.83,17.5 99.5,101.9 110.89,141.8 10.04,35.2 -33.05,70.4 -14.39,99.3 7.01,10.8 29.55,11.8 39.17,19 21.91,16.4 21.94,21.2 35.26,46.2"
         style="fill:#788087;fill-opacity:1;fill-rule:nonzero;stroke:none"
         id="path26" />
      <path
         d="m 4341.61,7681.4 c 12.85,19.6 26.13,32.2 41.39,51.3 15.87,20 14.68,29.3 24.99,51.6 21.08,45.7 22.18,23.7 57.59,40.6 20.02,9.6 29.15,21.3 45.8,36.6 49.93,46 50.22,7.7 96.71,-21 19.84,-12.2 57.67,-27.5 79.71,-11.3 7.86,5.8 14.25,38.7 23.35,50.3 25.36,32.5 37.4,28.1 42.36,69 2.63,21.6 5.77,62.6 0.66,83.8 -11.94,49.6 -40.02,76.2 -1.27,131.2 12.31,17.4 41.71,30 43.41,53 1.22,16.5 -20.62,31.1 -21.64,48.9 -0.76,13.1 20,41.8 19.99,64.2 -0.01,26.4 -10.39,35.9 -16.48,55.9 -13.3,44 -13.79,101.5 -45.24,135.4 -18.64,20.1 -33.45,23.6 -57.15,20.6 1.39,0.2 -18.1,-16 -22.95,-17.5 -12.97,-3.9 -57.35,1 -64.33,1.1 66.32,0 -33.36,16.9 -83.07,-9.6 -19.49,-10.3 -34.01,-26 -55.83,-36.7 -16.97,-8.3 -34.44,-22.6 -51.4,-30.9 -48.5,-23.8 -89.74,-45 -72.52,-108.1 15.08,-55.2 40.99,-119.9 -29.88,-139.3 -49.57,-13.5 -115.25,13.3 -156.36,-29.9 -25.16,-26.4 -31.46,-94.2 -24.89,-129.8 8.13,-44.1 48.99,-85.3 67.51,-127.9 9.92,-22.8 15.41,-25.5 15.92,-56.3 0.55,-32.4 -16.19,-53.6 -17.43,-82.5 -1.3,-30.7 31.15,-124.8 57.21,-144.9 50.43,-39 80.77,17.1 103.84,52.2"
         style="fill:#788087;fill-opacity:1;fill-rule:nonzero;stroke:none"
         id="path28" />
      <path
         d="m 6441.7,6529.7 c -17.46,13.1 -52.9,14.6 -73.68,22.5 -84.58,32.1 -76.58,109.6 -112.49,181.8 -24.32,49 -41.48,78.1 -91.1,104.1 -41.56,21.8 -84.8,34.4 -131.12,57.1 -37.59,18.4 -86.5,28.3 -107.37,63.3 -19.38,32.4 -23.19,87.9 -36.17,124.2 -14.42,40.3 -9.31,50.7 -46.21,34.2 -44.82,-19.9 -63.24,-84.7 -102.47,-115.4 -45.99,-35.9 -94.41,-43 -144.35,-29.8 -29.38,7.8 -65.46,17.4 -92.66,30.7 -24.45,11.9 -23.12,6.4 -43.68,30.3 -13.54,15.7 -26.65,53.3 -48.83,59.2 -44.55,11.9 -46.87,-48.3 -75.4,-70 -69.19,-52.5 -109.83,41 -173.63,24.2 -32.52,-8.5 -43.46,-68.8 -74.62,-90.2 -30.45,-21 -101.54,-25.9 -128.76,4.1 -29.7,32.8 -12.08,91.8 -0.58,129.8 12.95,42.8 39.93,76.4 56.15,117.1 10.97,27.4 18.55,57.4 9.51,86.6 -17.07,55.1 -81.39,82.9 -128.74,106.1 -71.94,35.3 -145.94,66.7 -209.76,116.2 -32.16,24.9 -63.24,78.8 -98.68,94.6 -24.66,10.9 -35.8,-0.2 -58.16,-4.1 -29.19,-5.1 -53.89,-6.8 -84.41,-7.1 -48.32,-0.4 -194.76,-116.5 -201.58,-169.7 -4.55,-35.7 38.55,-45.9 33.87,-72.1 -5.49,-30.7 -62.63,-35.4 -33.79,-83.3 41.93,-69.7 140.65,-28.4 201.97,-49.3 43.4,-14.9 38.17,-40 81.59,-27.7 31.42,8.9 66.23,45.3 87.7,69.9 25.16,-13.1 62.21,-29.8 89.38,-36.2 45.71,-10.7 46.57,-12.9 81.23,-43 -42.23,0.4 -87.69,-1 -109.95,-45.3 -18.6,-37.1 -4.77,-91.2 21.13,-119.3 23.5,-25.6 58.64,-43 75.35,-73.6 12.02,-22 10.1,-46.1 28.1,-66.3 20.27,-22.8 32.81,-14.3 57.08,-24.3 81.95,-33.6 126.4,-134.6 225.73,-88.4 47.56,22.1 80.68,28.5 133.94,26.4 60.65,-2.4 51.13,-35.1 96.48,-57.8 19.67,-9.9 39.59,2.8 58.69,-3.1 20.06,-6.1 23.21,-24.1 39.31,-32.7 32.25,-17.2 128.46,-11.2 126.68,-71.8 -0.6,-20.6 -48.79,-80.1 -64.22,-92.4 -45.42,-36 -45.74,11.5 -91.98,9.9 -47.21,-1.7 -59.04,-62.4 -103.44,-62.4 -46,0 -49.25,50.1 -102.63,41 -47.33,-8 -75.81,-46 -123.49,-37.9 -48.95,8.3 -92.54,48.6 -144.99,40.5 -38.08,-5.9 -71.18,-36.9 -112.32,-43.3 -29.95,-4.6 -39.45,7.5 -60.2,-10.7 -11.06,-9.7 -20.02,-44.8 -22.94,-59.4 -18.97,-94.9 13.54,-186.7 113.93,-196.2 76.8,-7.2 153.79,-62.9 131.94,-152.6 -3.62,-14.8 -15.35,-25.1 -19.35,-42.1 -6.54,-27.7 0.65,-46.1 -13.89,-73.2 -25.42,-47.5 -82.72,-57.3 -89.55,-112.7 -6.96,-56.5 35.09,-61.2 83.43,-72.6 45.91,-10.9 101.23,-17.7 145.02,-40.7 38.92,-20.4 36.86,-50.3 65.38,-82.1 27.13,-30.2 62.23,-58 97.75,-77.2 43.13,-23.4 89.2,-29.5 133.01,-41.7 60.6,-16.9 76.49,3 98.91,52 32.59,71.3 96.03,132.1 113.74,210.8 6.28,27.9 -5.14,53 23.69,63.7 27.52,10.2 58.29,-19.4 83.69,-23.6 10.03,-1.7 21.85,4 31.71,1.7 13,-3.1 24.98,-13.9 34.67,-16.5 25.93,-7 42.79,-7 68.2,4.9 109.2,51.3 37.5,225.2 -62.53,237.8 -28.68,3.7 -45.59,0.3 -73.04,14.4 -7.45,3.9 -16.6,19 -24.02,22.2 -12.41,5.4 -26.2,-0.7 -37.22,3.5 -50.31,19 -84.4,21.9 -143.37,21.2 -42.02,-0.5 -83.06,9.7 -101.39,52.9 -5.02,11.9 -7.8,65.9 -0.77,79.2 11.79,22.3 44.52,26.5 63.87,44.3 -17.31,-16.7 -45.7,-11.1 -64.89,-23.7 -29.66,-19.3 -40.27,-35.6 -71.77,-49.9 -20.65,-9.3 -48.2,-21.7 -72.02,-21.5 -33.47,0.2 -47.18,23.7 -79.7,26.1 7.01,60.2 99.24,69.8 141.5,76.6 27.31,4.3 66.4,19.9 87.87,36.1 34.32,25.7 31.19,58.4 85.19,45.7 18.29,-4.3 50.52,-25.1 64.25,-38.8 18.46,-18.4 16.79,-61.3 34.15,-79 35.5,-36.1 152.84,-36.1 198.65,-21.6 1.68,23.4 -2.17,50 20.17,64.3 -5.01,5.7 -9.56,25.5 -15.16,31.4 40.82,18.3 96.41,-16.9 142.05,-16.3 43.39,0.5 84.86,-0.2 123.44,-10.4 36.14,-9.5 87.55,-25.7 119.28,7.7 32.87,34.7 27.59,110.2 25.08,160.5 14.41,-75.8 166.73,-108.6 225.92,-92 51.96,14.5 69.22,47.8 62.12,99.1 -4.17,30.2 2.43,24.7 -19.43,41.1"
         style="fill:#788087;fill-opacity:1;fill-rule:nonzero;stroke:none"
         id="path30" />
    </g>
  </g>
</svg>
